<svg width="16" height="16" viewBox="0 0 16 16" fill="none" xmlns="http://www.w3.org/2000/svg">
<rect x="0.5" y="0.5" width="15" height="15" rx="7.5" fill="#C7DFEF"/>
<path d="M8.00001 3.42871C7.3938 3.42871 6.81242 3.69047 6.38376 4.1564C5.95511 4.62232 5.71429 5.25426 5.71429 5.91318C5.71429 6.04497 5.76246 6.17135 5.84819 6.26454C5.93392 6.35773 6.0502 6.41008 6.17144 6.41008C6.29268 6.41008 6.40896 6.35773 6.49469 6.26454C6.58042 6.17135 6.62858 6.04497 6.62858 5.91318C6.62858 5.08933 7.24207 4.4225 8.00001 4.4225C8.75795 4.4225 9.37144 5.08933 9.37144 5.91318C9.37144 6.31865 9.28047 6.55616 9.17121 6.72262C9.05144 6.90399 8.88549 7.03964 8.65555 7.21206L8.60252 7.25082C8.39818 7.40287 8.13487 7.59815 7.93098 7.87045C7.69007 8.19244 7.54287 8.59939 7.54287 9.143V9.39144C7.54287 9.52323 7.59103 9.64962 7.67676 9.7428C7.76249 9.83599 7.87877 9.88834 8.00001 9.88834C8.12125 9.88834 8.23753 9.83599 8.32326 9.7428C8.40899 9.64962 8.45715 9.52323 8.45715 9.39144V9.143C8.45715 8.81703 8.53852 8.63418 8.64001 8.49753C8.75749 8.34151 8.91567 8.22325 9.14927 8.04884L9.17349 8.03045C9.40024 7.86151 9.69144 7.63989 9.91407 7.30101C10.1486 6.94722 10.2857 6.50101 10.2857 5.91318C10.2857 5.25426 10.0449 4.62232 9.61625 4.1564C9.1876 3.69047 8.60622 3.42871 8.00001 3.42871ZM8.00001 12.0001C8.15156 12.0001 8.29691 11.9347 8.40407 11.8182C8.51123 11.7017 8.57144 11.5438 8.57144 11.379C8.57144 11.2143 8.51123 11.0563 8.40407 10.9398C8.29691 10.8233 8.15156 10.7579 8.00001 10.7579C7.84846 10.7579 7.70311 10.8233 7.59595 10.9398C7.48878 11.0563 7.42858 11.2143 7.42858 11.379C7.42858 11.5438 7.48878 11.7017 7.59595 11.8182C7.70311 11.9347 7.84846 12.0001 8.00001 12.0001Z" fill="#2A73A3"/>
<rect x="0.5" y="0.5" width="15" height="15" rx="7.5" stroke="url(#paint0_linear_194_22089)"/>
<defs>
<linearGradient id="paint0_linear_194_22089" x1="-1.69877" y1="-4.9091" x2="20.0375" y2="-4.46966" gradientUnits="userSpaceOnUse">
<stop stop-color="#3997D3"/>
<stop offset="0.0001" stop-color="#71ADD2"/>
<stop offset="1" stop-color="#277BB0"/>
</linearGradient>
</defs>
</svg>
