<svg width="24" height="24" viewBox="0 0 24 24" fill="none" xmlns="http://www.w3.org/2000/svg">
<path d="M12 21C16.9706 21 21 16.9706 21 12C21 7.02944 16.9706 3 12 3C7.02944 3 3 7.02944 3 12C3 16.9706 7.02944 21 12 21Z" stroke="white" stroke-width="1.5" stroke-linecap="round" stroke-linejoin="round"/>
<path d="M10.6186 8.00024L10.6177 7.40024C10.2867 7.40071 10.0186 7.6692 10.0186 8.00024H10.6186ZM10.0186 16.5C10.0186 16.8314 10.2872 17.1 10.6186 17.1C10.9499 17.1 11.2186 16.8314 11.2186 16.5H10.0186ZM9 13.9C8.66863 13.9 8.4 14.1686 8.4 14.5C8.4 14.8314 8.66863 15.1 9 15.1V13.9ZM13.5176 15.1C13.849 15.1 14.1176 14.8314 14.1176 14.5C14.1176 14.1686 13.849 13.9 13.5176 13.9V15.1ZM9 11.5413C8.66863 11.5413 8.4 11.8099 8.4 12.1413C8.4 12.4727 8.66863 12.7413 9 12.7413V11.5413ZM10.0186 13.6472V16.5H11.2186V13.6472H10.0186ZM10.6186 8.00024C10.0186 8.00024 10.0186 8.00024 10.0186 8.00024C10.0186 8.00024 10.0186 8.00024 10.0186 8.00024C10.0186 8.00024 10.0186 8.00024 10.0186 8.00024C10.0186 8.00024 10.0186 8.00024 10.0186 8.00024C10.0186 8.00024 10.0186 8.00024 10.0186 8.00024C10.0186 8.00025 10.0186 8.00025 10.0186 8.00025C10.0186 8.00025 10.0186 8.00025 10.0186 8.00025C10.0186 8.00025 10.0186 8.00025 10.0186 8.00026C10.0186 8.00026 10.0186 8.00026 10.0186 8.00026C10.0186 8.00027 10.0186 8.00027 10.0186 8.00027C10.0186 8.00028 10.0186 8.00028 10.0186 8.00028C10.0186 8.00029 10.0186 8.00029 10.0186 8.00029C10.0186 8.0003 10.0186 8.0003 10.0186 8.00031C10.0186 8.00031 10.0186 8.00032 10.0186 8.00033C10.0186 8.00033 10.0186 8.00034 10.0186 8.00035C10.0186 8.00035 10.0186 8.00036 10.0186 8.00037C10.0186 8.00038 10.0186 8.00038 10.0186 8.00039C10.0186 8.0004 10.0186 8.00041 10.0186 8.00042C10.0186 8.00043 10.0186 8.00044 10.0186 8.00045C10.0186 8.00046 10.0186 8.00048 10.0186 8.00049C10.0186 8.0005 10.0186 8.00051 10.0186 8.00053C10.0186 8.00054 10.0186 8.00055 10.0186 8.00057C10.0186 8.00058 10.0186 8.0006 10.0186 8.00062C10.0186 8.00063 10.0186 8.00065 10.0186 8.00067C10.0186 8.00069 10.0186 8.0007 10.0186 8.00072C10.0186 8.00074 10.0186 8.00076 10.0186 8.00078C10.0186 8.0008 10.0186 8.00083 10.0186 8.00085C10.0186 8.00087 10.0186 8.00089 10.0186 8.00092C10.0186 8.00094 10.0186 8.00097 10.0186 8.00099C10.0186 8.00102 10.0186 8.00105 10.0186 8.00107C10.0186 8.0011 10.0186 8.00113 10.0186 8.00116C10.0186 8.00119 10.0186 8.00122 10.0186 8.00125C10.0186 8.00128 10.0186 8.00132 10.0186 8.00135C10.0186 8.00138 10.0186 8.00142 10.0186 8.00145C10.0186 8.00149 10.0186 8.00153 10.0186 8.00156C10.0186 8.0016 10.0186 8.00164 10.0186 8.00168C10.0186 8.00172 10.0186 8.00176 10.0186 8.0018C10.0186 8.00185 10.0186 8.00189 10.0186 8.00193C10.0186 8.00198 10.0186 8.00202 10.0186 8.00207C10.0186 8.00212 10.0186 8.00217 10.0186 8.00222C10.0186 8.00227 10.0186 8.00232 10.0186 8.00237C10.0186 8.00242 10.0186 8.00247 10.0186 8.00253C10.0186 8.00258 10.0186 8.00264 10.0186 8.00269C10.0186 8.00275 10.0186 8.00281 10.0186 8.00287C10.0186 8.00293 10.0186 8.00299 10.0186 8.00305C10.0186 8.00312 10.0186 8.00318 10.0186 8.00324C10.0186 8.00331 10.0186 8.00338 10.0186 8.00344C10.0186 8.00351 10.0186 8.00358 10.0186 8.00365C10.0186 8.00372 10.0186 8.0038 10.0186 8.00387C10.0186 8.00395 10.0186 8.00402 10.0186 8.0041C10.0186 8.00417 10.0186 8.00425 10.0186 8.00433C10.0186 8.00441 10.0186 8.0045 10.0186 8.00458C10.0186 8.00466 10.0186 8.00475 10.0186 8.00483C10.0186 8.00492 10.0186 8.00501 10.0186 8.0051C10.0186 8.00519 10.0186 8.00528 10.0186 8.00537C10.0186 8.00547 10.0186 8.00556 10.0186 8.00566C10.0186 8.00576 10.0186 8.00585 10.0186 8.00595C10.0186 8.00606 10.0186 8.00616 10.0186 8.00626C10.0186 8.00636 10.0186 8.00647 10.0186 8.00658C10.0186 8.00669 10.0186 8.00679 10.0186 8.00691C10.0186 8.00702 10.0186 8.00713 10.0186 8.00724C10.0186 8.00736 10.0186 8.00748 10.0186 8.00759C10.0186 8.00771 10.0186 8.00783 10.0186 8.00796C10.0186 8.00808 10.0186 8.0082 10.0186 8.00833C10.0186 8.00846 10.0186 8.00858 10.0186 8.00871C10.0186 8.00884 10.0186 8.00898 10.0186 8.00911C10.0186 8.00925 10.0186 8.00938 10.0186 8.00952C10.0186 8.00966 10.0186 8.0098 10.0186 8.00994C10.0186 8.01009 10.0186 8.01023 10.0186 8.01038C10.0186 8.01052 10.0186 8.01067 10.0186 8.01082C10.0186 8.01098 10.0186 8.01113 10.0186 8.01128C10.0186 8.01144 10.0186 8.0116 10.0186 8.01176C10.0186 8.01192 10.0186 8.01208 10.0186 8.01224C10.0186 8.01241 10.0186 8.01257 10.0186 8.01274C10.0186 8.01291 10.0186 8.01308 10.0186 8.01326C10.0186 8.01343 10.0186 8.01361 10.0186 8.01379C10.0186 8.01396 10.0186 8.01414 10.0186 8.01433C10.0186 8.01451 10.0186 8.01469 10.0186 8.01488C10.0186 8.01507 10.0186 8.01526 10.0186 8.01545C10.0186 8.01565 10.0186 8.01584 10.0186 8.01604C10.0186 8.01624 10.0186 8.01644 10.0186 8.01664C10.0186 8.01684 10.0186 8.01705 10.0186 8.01725C10.0186 8.01746 10.0186 8.01767 10.0186 8.01788C10.0186 8.0181 10.0186 8.01831 10.0186 8.01853C10.0186 8.01875 10.0186 8.01897 10.0186 8.01919C10.0186 8.01941 10.0186 8.01964 10.0186 8.01987C10.0186 8.02009 10.0186 8.02032 10.0186 8.02056C10.0186 8.02079 10.0186 8.02103 10.0186 8.02127C10.0186 8.02151 10.0186 8.02175 10.0186 8.02199C10.0186 8.02224 10.0186 8.02248 10.0186 8.02273C10.0186 8.02298 10.0186 8.02324 10.0186 8.02349C10.0186 8.02375 10.0186 8.02401 10.0186 8.02427C10.0186 8.02453 10.0186 8.02479 10.0186 8.02506C10.0186 8.02533 10.0186 8.02559 10.0186 8.02587C10.0186 8.02614 10.0186 8.02642 10.0186 8.02669C10.0186 8.02697 10.0186 8.02725 10.0186 8.02754C10.0186 8.02782 10.0186 8.02811 10.0186 8.0284C10.0186 8.02869 10.0186 8.02898 10.0186 8.02928C10.0186 8.02958 10.0186 8.02988 10.0186 8.03018C10.0186 8.03048 10.0186 8.03079 10.0186 8.03109C10.0186 8.0314 10.0186 8.03171 10.0186 8.03203C10.0186 8.03234 10.0186 8.03266 10.0186 8.03298C10.0186 8.0333 10.0186 8.03363 10.0186 8.03396C10.0186 8.03428 10.0186 8.03461 10.0186 8.03495C10.0186 8.03528 10.0186 8.03562 10.0186 8.03596C10.0186 8.0363 10.0186 8.03664 10.0186 8.03699C10.0186 8.03733 10.0186 8.03768 10.0186 8.03804C10.0186 8.03839 10.0186 8.03875 10.0186 8.03911C10.0186 8.03947 10.0186 8.03983 10.0186 8.0402C10.0186 8.04056 10.0186 8.04093 10.0186 8.04131C10.0186 8.04168 10.0186 8.04206 10.0186 8.04244C10.0186 8.04282 10.0186 8.0432 10.0186 8.04359C10.0186 8.04398 10.0186 8.04437 10.0186 8.04476C10.0186 8.04515 10.0186 8.04555 10.0186 8.04595C10.0186 8.04635 10.0186 8.04676 10.0186 8.04717C10.0186 8.04757 10.0186 8.04798 10.0186 8.0484C10.0186 8.04882 10.0186 8.04923 10.0186 8.04966C10.0186 8.05008 10.0186 8.0505 10.0186 8.05093C10.0186 8.05136 10.0186 8.0518 10.0186 8.05223C10.0186 8.05267 10.0186 8.05311 10.0186 8.05356C10.0186 8.054 10.0186 8.05445 10.0186 8.0549C10.0186 8.05535 10.0186 8.05581 10.0186 8.05627C10.0186 8.05673 10.0186 8.05719 10.0186 8.05766C10.0186 8.05812 10.0186 8.05859 10.0186 8.05907C10.0186 8.05954 10.0186 8.06002 10.0186 8.0605C10.0186 8.06098 10.0186 8.06147 10.0186 8.06196C10.0186 8.06245 10.0186 8.06294 10.0186 8.06344C10.0186 8.06394 10.0186 8.06444 10.0186 8.06495C10.0186 8.06545 10.0186 8.06596 10.0186 8.06647C10.0186 8.06699 10.0186 8.0675 10.0186 8.06803C10.0186 8.06855 10.0186 8.06907 10.0186 8.0696C10.0186 8.07013 10.0186 8.07067 10.0186 8.0712C10.0186 8.07174 10.0186 8.07228 10.0186 8.07283C10.0186 8.07337 10.0186 8.07392 10.0186 8.07448C10.0186 8.07503 10.0186 8.07559 10.0186 8.07615C10.0186 8.07671 10.0186 8.07728 10.0186 8.07785C10.0186 8.07842 10.0186 8.079 10.0186 8.07958C10.0186 8.08016 10.0186 8.08074 10.0186 8.08133C10.0186 8.08191 10.0186 8.08251 10.0186 8.0831C10.0186 8.0837 10.0186 8.0843 10.0186 8.0849C10.0186 8.08551 10.0186 8.08612 10.0186 8.08673C10.0186 8.08734 10.0186 8.08796 10.0186 8.08858C10.0186 8.08921 10.0186 8.08983 10.0186 8.09046C10.0186 8.09109 10.0186 8.09173 10.0186 8.09237C10.0186 8.09301 10.0186 8.09365 10.0186 8.0943C10.0186 8.09495 10.0186 8.0956 10.0186 8.09626C10.0186 8.09692 10.0186 8.09758 10.0186 8.09825C10.0186 8.09891 10.0186 8.09959 10.0186 8.10026C10.0186 8.10094 10.0186 8.10162 10.0186 8.1023C10.0186 8.10299 10.0186 8.10368 10.0186 8.10437C10.0186 8.10507 10.0186 8.10576 10.0186 8.10647C10.0186 8.10717 10.0186 8.10788 10.0186 8.10859C10.0186 8.10931 10.0186 8.11002 10.0186 8.11075C10.0186 8.11147 10.0186 8.11219 10.0186 8.11293C10.0186 8.11366 10.0186 8.11439 10.0186 8.11514C10.0186 8.11588 10.0186 8.11662 10.0186 8.11737C10.0186 8.11812 10.0186 8.11888 10.0186 8.11964C10.0186 8.1204 10.0186 8.12117 10.0186 8.12194C10.0186 8.12271 10.0186 8.12348 10.0186 8.12426C10.0186 8.12504 10.0186 8.12583 10.0186 8.12662C10.0186 8.12741 10.0186 8.1282 10.0186 8.129C10.0186 8.1298 10.0186 8.13061 10.0186 8.13142C10.0186 8.13223 10.0186 8.13304 10.0186 8.13386C10.0186 8.13468 10.0186 8.1355 10.0186 8.13633C10.0186 8.13716 10.0186 8.138 10.0186 8.13884C10.0186 8.13968 10.0186 8.14052 10.0186 8.14137C10.0186 8.14222 10.0186 8.14308 10.0186 8.14394C10.0186 8.1448 10.0186 8.14567 10.0186 8.14654C10.0186 8.14741 10.0186 8.14828 10.0186 8.14916C10.0186 8.15005 10.0186 8.15093 10.0186 8.15182C10.0186 8.15272 10.0186 8.15361 10.0186 8.15451C10.0186 8.15542 10.0186 8.15632 10.0186 8.15724C10.0186 8.15815 10.0186 8.15907 10.0186 8.15999C10.0186 8.16091 10.0186 8.16184 10.0186 8.16278C10.0186 8.16371 10.0186 8.16465 10.0186 8.1656C10.0186 8.16654 10.0186 8.16749 10.0186 8.16845C10.0186 8.1694 10.0186 8.17036 10.0186 8.17133C10.0186 8.1723 10.0186 8.17327 10.0186 8.17425C10.0186 8.17522 10.0186 8.17621 10.0186 8.1772C10.0186 8.17818 10.0186 8.17918 10.0186 8.18018C10.0186 8.18118 10.0186 8.18218 10.0186 8.18319C10.0186 8.1842 10.0186 8.18522 10.0186 8.18624C10.0186 8.18727 10.0186 8.18829 10.0186 8.18933C10.0186 8.19036 10.0186 8.1914 10.0186 8.19244C10.0186 8.19349 10.0186 8.19454 10.0186 8.19559C10.0186 8.19665 10.0186 8.19771 10.0186 8.19878C10.0186 8.19985 10.0186 8.20092 10.0186 8.202C10.0186 8.20308 10.0186 8.20416 10.0186 8.20525C10.0186 8.20634 10.0186 8.20744 10.0186 8.20854C10.0186 8.20964 10.0186 8.21075 10.0186 8.21186C10.0186 8.21298 10.0186 8.2141 10.0186 8.21522C10.0186 8.21635 10.0186 8.21748 10.0186 8.21862C10.0186 8.21976 10.0186 8.2209 10.0186 8.22205C10.0186 8.2232 10.0186 8.22435 10.0186 8.22551C10.0186 8.22668 10.0186 8.22784 10.0186 8.22902C10.0186 8.23019 10.0186 8.23137 10.0186 8.23255C10.0186 8.23374 10.0186 8.23493 10.0186 8.23613C10.0186 8.23732 10.0186 8.23853 10.0186 8.23974C10.0186 8.24095 10.0186 8.24216 10.0186 8.24338C10.0186 8.24461 10.0186 8.24583 10.0186 8.24707C10.0186 8.2483 10.0186 8.24954 10.0186 8.25079C10.0186 8.25204 10.0186 8.25329 10.0186 8.25455C10.0186 8.25581 10.0186 8.25707 10.0186 8.25834C10.0186 8.25961 10.0186 8.26089 10.0186 8.26218C10.0186 8.26346 10.0186 8.26475 10.0186 8.26605C10.0186 8.26734 10.0186 8.26865 10.0186 8.26996C10.0186 8.27127 10.0186 8.27258 10.0186 8.2739C10.0186 8.27523 10.0186 8.27655 10.0186 8.27789C10.0186 8.27922 10.0186 8.28056 10.0186 8.28191C10.0186 8.28326 10.0186 8.28461 10.0186 8.28597C10.0186 8.28734 10.0186 8.2887 10.0186 8.29008C10.0186 8.29145 10.0186 8.29283 10.0186 8.29422C10.0186 8.2956 10.0186 8.297 10.0186 8.2984C10.0186 8.2998 10.0186 8.3012 10.0186 8.30262C10.0186 8.30403 10.0186 8.30545 10.0186 8.30687C10.0186 8.3083 10.0186 8.30973 10.0186 8.31117C10.0186 8.31261 10.0186 8.31406 10.0186 8.31551C10.0186 8.31696 10.0186 8.31842 10.0186 8.31989C10.0186 8.32136 10.0186 8.32283 10.0186 8.32431C10.0186 8.32579 10.0186 8.32728 10.0186 8.32877C10.0186 8.33026 10.0186 8.33176 10.0186 8.33327C10.0186 8.33478 10.0186 8.33629 10.0186 8.33781C10.0186 8.33933 10.0186 8.34086 10.0186 8.34239C10.0186 8.34393 10.0186 8.34547 10.0186 8.34702C10.0186 8.34856 10.0186 8.35012 10.0186 8.35168C10.0186 8.35324 10.0186 8.35481 10.0186 8.35639C10.0186 8.35796 10.0186 8.35955 10.0186 8.36114C10.0186 8.36273 10.0186 8.36432 10.0186 8.36593C10.0186 8.36753 10.0186 8.36914 10.0186 8.37076C10.0186 8.37238 10.0186 8.374 10.0186 8.37563C10.0186 8.37727 10.0186 8.37891 10.0186 8.38055C10.0186 8.3822 10.0186 8.38385 10.0186 8.38551C10.0186 8.38717 10.0186 8.38884 10.0186 8.39052C10.0186 8.39219 10.0186 8.39387 10.0186 8.39556C10.0186 8.39725 10.0186 8.39895 10.0186 8.40065C10.0186 8.40236 10.0186 8.40407 10.0186 8.40579C10.0186 8.4075 10.0186 8.40923 10.0186 8.41096C10.0186 8.4127 10.0186 8.41444 10.0186 8.41618C10.0186 8.41793 10.0186 8.41969 10.0186 8.42145C10.0186 8.42321 10.0186 8.42498 10.0186 8.42676C10.0186 8.42854 10.0186 8.43032 10.0186 8.43211C10.0186 8.4339 10.0186 8.4357 10.0186 8.43751C10.0186 8.43932 10.0186 8.44113 10.0186 8.44295C10.0186 8.44478 10.0186 8.44661 10.0186 8.44844C10.0186 8.45028 10.0186 8.45212 10.0186 8.45398C10.0186 8.45583 10.0186 8.45769 10.0186 8.45955C10.0186 8.46142 10.0186 8.4633 10.0186 8.46518C10.0186 8.46706 10.0186 8.46895 10.0186 8.47085C10.0186 8.47275 10.0186 8.47465 10.0186 8.47656C10.0186 8.47848 10.0186 8.4804 10.0186 8.48233C10.0186 8.48425 10.0186 8.48619 10.0186 8.48813C10.0186 8.49008 10.0186 8.49203 10.0186 8.49399C10.0186 8.49595 10.0186 8.49791 10.0186 8.49989C10.0186 8.50186 10.0186 8.50385 10.0186 8.50584C10.0186 8.50783 10.0186 8.50983 10.0186 8.51183C10.0186 8.51384 10.0186 8.51585 10.0186 8.51788C10.0186 8.5199 10.0186 8.52193 10.0186 8.52397C10.0186 8.526 10.0186 8.52805 10.0186 8.5301C10.0186 8.53216 10.0186 8.53422 10.0186 8.53629C10.0186 8.53836 10.0186 8.54044 10.0186 8.54252C10.0186 8.54461 10.0186 8.5467 10.0186 8.5488C10.0186 8.5509 10.0186 8.55301 10.0186 8.55513C10.0186 8.55725 10.0186 8.55938 10.0186 8.56151C10.0186 8.56364 10.0186 8.56579 10.0186 8.56794C10.0186 8.57009 10.0186 8.57224 10.0186 8.57441C10.0186 8.57658 10.0186 8.57875 10.0186 8.58094C10.0186 8.58312 10.0186 8.58531 10.0186 8.58751C10.0186 8.58971 10.0186 8.59192 10.0186 8.59413C10.0186 8.59635 10.0186 8.59857 10.0186 8.60081C10.0186 8.60304 10.0186 8.60528 10.0186 8.60753C10.0186 8.60978 10.0186 8.61204 10.0186 8.6143C10.0186 8.61657 10.0186 8.61884 10.0186 8.62112C10.0186 8.62341 10.0186 8.6257 10.0186 8.628C10.0186 8.6303 10.0186 8.6326 10.0186 8.63492C10.0186 8.63724 10.0186 8.63956 10.0186 8.6419C10.0186 8.64423 10.0186 8.64657 10.0186 8.64892C10.0186 8.65127 10.0186 8.65363 10.0186 8.656C10.0186 8.65836 10.0186 8.66074 10.0186 8.66313C10.0186 8.66551 10.0186 8.6679 10.0186 8.6703C10.0186 8.67271 10.0186 8.67512 10.0186 8.67754C10.0186 8.67995 10.0186 8.68238 10.0186 8.68482C10.0186 8.68725 10.0186 8.6897 10.0186 8.69215C10.0186 8.69461 10.0186 8.69707 10.0186 8.69954C10.0186 8.70201 10.0186 8.70449 10.0186 8.70698C10.0186 8.70947 10.0186 8.71196 10.0186 8.71447C10.0186 8.71698 10.0186 8.71949 10.0186 8.72202C10.0186 8.72454 10.0186 8.72707 10.0186 8.72961C10.0186 8.73215 10.0186 8.7347 10.0186 8.73726C10.0186 8.73982 10.0186 8.74239 10.0186 8.74497C10.0186 8.74754 10.0186 8.75013 10.0186 8.75273C10.0186 8.75532 10.0186 8.75792 10.0186 8.76054C10.0186 8.76315 10.0186 8.76577 10.0186 8.7684C10.0186 8.77103 10.0186 8.77367 10.0186 8.77632C10.0186 8.77897 10.0186 8.78163 10.0186 8.78429C10.0186 8.78696 10.0186 8.78964 10.0186 8.79232C10.0186 8.79501 10.0186 8.7977 10.0186 8.8004C10.0186 8.80311 10.0186 8.80582 10.0186 8.80854C10.0186 8.81126 10.0186 8.81399 10.0186 8.81673C10.0186 8.81947 10.0186 8.82222 10.0186 8.82498C10.0186 8.82774 10.0186 8.83051 10.0186 8.83328C10.0186 8.83606 10.0186 8.83885 10.0186 8.84164C10.0186 8.84444 10.0186 8.84724 10.0186 8.85006C10.0186 8.85287 10.0186 8.85569 10.0186 8.85853C10.0186 8.86136 10.0186 8.8642 10.0186 8.86705C10.0186 8.8699 10.0186 8.87276 10.0186 8.87563C10.0186 8.8785 10.0186 8.88138 10.0186 8.88427C10.0186 8.88716 10.0186 8.89006 10.0186 8.89297C10.0186 8.89588 10.0186 8.89879 10.0186 8.90172C10.0186 8.90465 10.0186 8.90758 10.0186 8.91053C10.0186 8.91347 10.0186 8.91643 10.0186 8.9194C10.0186 8.92236 10.0186 8.92533 10.0186 8.92832C10.0186 8.9313 10.0186 8.9343 10.0186 8.9373C10.0186 8.9403 10.0186 8.94332 10.0186 8.94634C10.0186 8.94936 10.0186 8.95239 10.0186 8.95544C10.0186 8.95848 10.0186 8.96153 10.0186 8.96459C10.0186 8.96765 10.0186 8.97072 10.0186 8.9738C10.0186 8.97689 10.0186 8.97998 10.0186 8.98308C10.0186 8.98618 10.0186 8.98929 10.0186 8.99241C10.0186 8.99553 10.0186 8.99866 10.0186 9.0018C10.0186 9.00494 10.0186 9.00809 10.0186 9.01125C10.0186 9.01441 10.0186 9.01757 10.0186 9.02075C10.0186 9.02393 10.0186 9.02712 10.0186 9.03032C10.0186 9.03352 10.0186 9.03673 10.0186 9.03995C10.0186 9.04317 10.0186 9.0464 10.0186 9.04963C10.0186 9.05287 10.0186 9.05612 10.0186 9.05938C10.0186 9.06264 10.0186 9.06591 10.0186 9.06919C10.0186 9.07247 10.0186 9.07576 10.0186 9.07905C10.0186 9.08235 10.0186 9.08566 10.0186 9.08898C10.0186 9.0923 10.0186 9.09563 10.0186 9.09897C10.0186 9.10231 10.0186 9.10566 10.0186 9.10902C10.0186 9.11238 10.0186 9.11575 10.0186 9.11913C10.0186 9.12251 10.0186 9.1259 10.0186 9.1293C10.0186 9.1327 10.0186 9.13611 10.0186 9.13954C10.0186 9.14296 10.0186 9.14639 10.0186 9.14983C10.0186 9.15327 10.0186 9.15672 10.0186 9.16019C10.0186 9.16365 10.0186 9.16712 10.0186 9.17061C10.0186 9.17409 10.0186 9.17758 10.0186 9.18109C10.0186 9.18459 10.0186 9.1881 10.0186 9.19163C10.0186 9.19515 10.0186 9.19869 10.0186 9.20223C10.0186 9.20578 10.0186 9.20934 10.0186 9.2129C10.0186 9.21647 10.0186 9.22005 10.0186 9.22363C10.0186 9.22722 10.0186 9.23082 10.0186 9.23443C10.0186 9.23804 10.0186 9.24166 10.0186 9.24529C10.0186 9.24892 10.0186 9.25256 10.0186 9.25621C10.0186 9.25986 10.0186 9.26352 10.0186 9.26719C10.0186 9.27087 10.0186 9.27455 10.0186 9.27824C10.0186 9.28194 10.0186 9.28564 10.0186 9.28936C10.0186 9.29307 10.0186 9.2968 10.0186 9.30053C10.0186 9.30427 10.0186 9.30802 10.0186 9.31177C10.0186 9.31553 10.0186 9.3193 10.0186 9.32308C10.0186 9.32686 10.0186 9.33065 10.0186 9.33445C10.0186 9.33825 10.0186 9.34207 10.0186 9.34589C10.0186 9.34971 10.0186 9.35354 10.0186 9.35739C10.0186 9.36123 10.0186 9.36509 10.0186 9.36896C10.0186 9.37282 10.0186 9.3767 10.0186 9.38059C10.0186 9.38448 10.0186 9.38838 10.0186 9.39229C10.0186 9.3962 10.0186 9.40012 10.0186 9.40405C10.0186 9.40798 10.0186 9.41192 10.0186 9.41588C10.0186 9.41983 10.0186 9.4238 10.0186 9.42778C10.0186 9.43175 10.0186 9.43574 10.0186 9.43974C10.0186 9.44374 10.0186 9.44775 10.0186 9.45177C10.0186 9.45579 10.0186 9.45982 10.0186 9.46386C10.0186 9.46791 10.0186 9.47196 10.0186 9.47603C10.0186 9.48009 10.0186 9.48417 10.0186 9.48826C10.0186 9.49234 10.0186 9.49644 10.0186 9.50055C10.0186 9.50466 10.0186 9.50879 10.0186 9.51292C10.0186 9.51705 10.0186 9.5212 10.0186 9.52535C10.0186 9.52951 10.0186 9.53367 10.0186 9.53785C10.0186 9.54203 10.0186 9.54622 10.0186 9.55042C10.0186 9.55462 10.0186 9.55883 10.0186 9.56306C10.0186 9.56728 10.0186 9.57152 10.0186 9.57576C10.0186 9.58001 10.0186 9.58427 10.0186 9.58854C10.0186 9.59281 10.0186 9.59709 10.0186 9.60138C10.0186 9.60567 10.0186 9.60998 10.0186 9.61429C10.0186 9.61861 10.0186 9.62294 10.0186 9.62728C10.0186 9.63161 10.0186 9.63597 10.0186 9.64033C10.0186 9.64469 10.0186 9.64906 10.0186 9.65345C10.0186 9.65783 10.0186 9.66223 10.0186 9.66664C10.0186 9.67105 10.0186 9.67547 10.0186 9.6799C10.0186 9.68433 10.0186 9.68877 10.0186 9.69323C10.0186 9.69768 10.0186 9.70215 10.0186 9.70663C10.0186 9.71111 10.0186 9.7156 10.0186 9.7201C10.0186 9.7246 10.0186 9.72912 10.0186 9.73364C10.0186 9.73817 10.0186 9.74271 10.0186 9.74726C10.0186 9.75181 10.0186 9.75637 10.0186 9.76094C10.0186 9.76551 10.0186 9.7701 10.0186 9.7747C10.0186 9.77929 10.0186 9.7839 10.0186 9.78852C10.0186 9.79314 10.0186 9.79778 10.0186 9.80242C10.0186 9.80707 10.0186 9.81172 10.0186 9.81639C10.0186 9.82106 10.0186 9.82574 10.0186 9.83043C10.0186 9.83513 10.0186 9.83983 10.0186 9.84455C10.0186 9.84927 10.0186 9.85399 10.0186 9.85874C10.0186 9.86348 10.0186 9.86823 10.0186 9.873C10.0186 9.87776 10.0186 9.88254 10.0186 9.88733C10.0186 9.89212 10.0186 9.89692 10.0186 9.90173C10.0186 9.90655 10.0186 9.91137 10.0186 9.91621C10.0186 9.92105 10.0186 9.9259 10.0186 9.93076C10.0186 9.93563 10.0186 9.9405 10.0186 9.94539C10.0186 9.95027 10.0186 9.95517 10.0186 9.96009C10.0186 9.965 10.0186 9.96992 10.0186 9.97486C10.0186 9.9798 10.0186 9.98474 10.0186 9.98971C10.0186 9.99467 10.0186 9.99964 10.0186 10.0046C10.0186 10.0096 10.0186 10.0146 10.0186 10.0196C10.0186 10.0246 10.0186 10.0297 10.0186 10.0347C10.0186 10.0397 10.0186 10.0448 10.0186 10.0498C10.0186 10.0549 10.0186 10.06 10.0186 10.0651C10.0186 10.0701 10.0186 10.0752 10.0186 10.0804C10.0186 10.0855 10.0186 10.0906 10.0186 10.0957C10.0186 10.1009 10.0186 10.106 10.0186 10.1112C10.0186 10.1163 10.0186 10.1215 10.0186 10.1267C10.0186 10.1319 10.0186 10.1371 10.0186 10.1423C10.0186 10.1475 10.0186 10.1527 10.0186 10.158C10.0186 10.1632 10.0186 10.1684 10.0186 10.1737C10.0186 10.179 10.0186 10.1842 10.0186 10.1895C10.0186 10.1948 10.0186 10.2001 10.0186 10.2054C10.0186 10.2108 10.0186 10.2161 10.0186 10.2214C10.0186 10.2268 10.0186 10.2321 10.0186 10.2375C10.0186 10.2428 10.0186 10.2482 10.0186 10.2536C10.0186 10.259 10.0186 10.2644 10.0186 10.2698C10.0186 10.2752 10.0186 10.2807 10.0186 10.2861C10.0186 10.2916 10.0186 10.297 10.0186 10.3025C10.0186 10.3079 10.0186 10.3134 10.0186 10.3189C10.0186 10.3244 10.0186 10.3299 10.0186 10.3354C10.0186 10.341 10.0186 10.3465 10.0186 10.352C10.0186 10.3576 10.0186 10.3631 10.0186 10.3687C10.0186 10.3743 10.0186 10.3799 10.0186 10.3855C10.0186 10.3911 10.0186 10.3967 10.0186 10.4023C10.0186 10.4079 10.0186 10.4136 10.0186 10.4192C10.0186 10.4249 10.0186 10.4305 10.0186 10.4362C10.0186 10.4419 10.0186 10.4476 10.0186 10.4533C10.0186 10.459 10.0186 10.4647 10.0186 10.4705C10.0186 10.4762 10.0186 10.4819 10.0186 10.4877C10.0186 10.4934 10.0186 10.4992 10.0186 10.505C10.0186 10.5108 10.0186 10.5166 10.0186 10.5224C10.0186 10.5282 10.0186 10.534 10.0186 10.5399C10.0186 10.5457 10.0186 10.5516 10.0186 10.5574C10.0186 10.5633 10.0186 10.5692 10.0186 10.5751C10.0186 10.581 10.0186 10.5869 10.0186 10.5928C10.0186 10.5987 10.0186 10.6046 10.0186 10.6106C10.0186 10.6165 10.0186 10.6225 10.0186 10.6285C10.0186 10.6344 10.0186 10.6404 10.0186 10.6464C10.0186 10.6524 10.0186 10.6584 10.0186 10.6645C10.0186 10.6705 10.0186 10.6765 10.0186 10.6826C10.0186 10.6886 10.0186 10.6947 10.0186 10.7008C10.0186 10.7069 10.0186 10.713 10.0186 10.7191C10.0186 10.7252 10.0186 10.7313 10.0186 10.7374C10.0186 10.7436 10.0186 10.7497 10.0186 10.7559C10.0186 10.7621 10.0186 10.7682 10.0186 10.7744C10.0186 10.7806 10.0186 10.7868 10.0186 10.7931C10.0186 10.7993 10.0186 10.8055 10.0186 10.8118C10.0186 10.818 10.0186 10.8243 10.0186 10.8305C10.0186 10.8368 10.0186 10.8431 10.0186 10.8494C10.0186 10.8557 10.0186 10.862 10.0186 10.8684C10.0186 10.8747 10.0186 10.881 10.0186 10.8874C10.0186 10.8938 10.0186 10.9001 10.0186 10.9065C10.0186 10.9129 10.0186 10.9193 10.0186 10.9257C10.0186 10.9321 10.0186 10.9386 10.0186 10.945C10.0186 10.9515 10.0186 10.9579 10.0186 10.9644C10.0186 10.9709 10.0186 10.9773 10.0186 10.9838C10.0186 10.9903 10.0186 10.9969 10.0186 11.0034C10.0186 11.0099 10.0186 11.0165 10.0186 11.023C10.0186 11.0296 10.0186 11.0361 10.0186 11.0427C10.0186 11.0493 10.0186 11.0559 10.0186 11.0625C10.0186 11.0691 10.0186 11.0758 10.0186 11.0824C10.0186 11.0891 10.0186 11.0957 10.0186 11.1024C10.0186 11.1091 10.0186 11.1157 10.0186 11.1224C10.0186 11.1291 10.0186 11.1359 10.0186 11.1426C10.0186 11.1493 10.0186 11.1561 10.0186 11.1628C10.0186 11.1696 10.0186 11.1763 10.0186 11.1831C10.0186 11.1899 10.0186 11.1967 10.0186 11.2035C10.0186 11.2103 10.0186 11.2172 10.0186 11.224C10.0186 11.2309 10.0186 11.2377 10.0186 11.2446C10.0186 11.2515 10.0186 11.2584 10.0186 11.2653C10.0186 11.2722 10.0186 11.2791 10.0186 11.286C10.0186 11.293 10.0186 11.2999 10.0186 11.3069C10.0186 11.3138 10.0186 11.3208 10.0186 11.3278C10.0186 11.3348 10.0186 11.3418 10.0186 11.3488C10.0186 11.3558 10.0186 11.3629 10.0186 11.3699C10.0186 11.377 10.0186 11.384 10.0186 11.3911C10.0186 11.3982 10.0186 11.4053 10.0186 11.4124C10.0186 11.4195 10.0186 11.4266 10.0186 11.4338C10.0186 11.4409 10.0186 11.448 10.0186 11.4552C10.0186 11.4624 10.0186 11.4696 10.0186 11.4768C10.0186 11.484 10.0186 11.4912 10.0186 11.4984C10.0186 11.5056 10.0186 11.5129 10.0186 11.5201C10.0186 11.5274 10.0186 11.5347 10.0186 11.5419C10.0186 11.5492 10.0186 11.5565 10.0186 11.5638C10.0186 11.5712 10.0186 11.5785 10.0186 11.5858C10.0186 11.5932 10.0186 11.6006 10.0186 11.6079C10.0186 11.6153 10.0186 11.6227 10.0186 11.6301C10.0186 11.6375 10.0186 11.6449 10.0186 11.6524C10.0186 11.6598 10.0186 11.6673 10.0186 11.6747C10.0186 11.6822 10.0186 11.6897 10.0186 11.6972C10.0186 11.7047 10.0186 11.7122 10.0186 11.7197C10.0186 11.7273 10.0186 11.7348 10.0186 11.7424C10.0186 11.7499 10.0186 11.7575 10.0186 11.7651C10.0186 11.7727 10.0186 11.7803 10.0186 11.7879C10.0186 11.7955 10.0186 11.8032 10.0186 11.8108C10.0186 11.8185 10.0186 11.8261 10.0186 11.8338C10.0186 11.8415 10.0186 11.8492 10.0186 11.8569C10.0186 11.8646 10.0186 11.8724 10.0186 11.8801C10.0186 11.8878 10.0186 11.8956 10.0186 11.9034C10.0186 11.9112 10.0186 11.9189 10.0186 11.9268C10.0186 11.9346 10.0186 11.9424 10.0186 11.9502C10.0186 11.9581 10.0186 11.9659 10.0186 11.9738C10.0186 11.9816 10.0186 11.9895 10.0186 11.9974C10.0186 12.0053 10.0186 12.0132 10.0186 12.0212C10.0186 12.0291 10.0186 12.0371 10.0186 12.045C10.0186 12.053 10.0186 12.061 10.0186 12.0689C10.0186 12.0769 10.0186 12.085 10.0186 12.093C10.0186 12.101 10.0186 12.109 10.0186 12.1171C10.0186 12.1252 10.0186 12.1332 10.0186 12.1413H11.2186C11.2186 12.1332 11.2186 12.1252 11.2186 12.1171C11.2186 12.109 11.2186 12.101 11.2186 12.093C11.2186 12.085 11.2186 12.0769 11.2186 12.0689C11.2186 12.061 11.2186 12.053 11.2186 12.045C11.2186 12.0371 11.2186 12.0291 11.2186 12.0212C11.2186 12.0132 11.2186 12.0053 11.2186 11.9974C11.2186 11.9895 11.2186 11.9816 11.2186 11.9738C11.2186 11.9659 11.2186 11.9581 11.2186 11.9502C11.2186 11.9424 11.2186 11.9346 11.2186 11.9268C11.2186 11.9189 11.2186 11.9112 11.2186 11.9034C11.2186 11.8956 11.2186 11.8878 11.2186 11.8801C11.2186 11.8724 11.2186 11.8646 11.2186 11.8569C11.2186 11.8492 11.2186 11.8415 11.2186 11.8338C11.2186 11.8261 11.2186 11.8185 11.2186 11.8108C11.2186 11.8032 11.2186 11.7955 11.2186 11.7879C11.2186 11.7803 11.2186 11.7727 11.2186 11.7651C11.2186 11.7575 11.2186 11.7499 11.2186 11.7424C11.2186 11.7348 11.2186 11.7273 11.2186 11.7197C11.2186 11.7122 11.2186 11.7047 11.2186 11.6972C11.2186 11.6897 11.2186 11.6822 11.2186 11.6747C11.2186 11.6673 11.2186 11.6598 11.2186 11.6524C11.2186 11.6449 11.2186 11.6375 11.2186 11.6301C11.2186 11.6227 11.2186 11.6153 11.2186 11.6079C11.2186 11.6006 11.2186 11.5932 11.2186 11.5858C11.2186 11.5785 11.2186 11.5712 11.2186 11.5638C11.2186 11.5565 11.2186 11.5492 11.2186 11.5419C11.2186 11.5347 11.2186 11.5274 11.2186 11.5201C11.2186 11.5129 11.2186 11.5056 11.2186 11.4984C11.2186 11.4912 11.2186 11.484 11.2186 11.4768C11.2186 11.4696 11.2186 11.4624 11.2186 11.4552C11.2186 11.448 11.2186 11.4409 11.2186 11.4338C11.2186 11.4266 11.2186 11.4195 11.2186 11.4124C11.2186 11.4053 11.2186 11.3982 11.2186 11.3911C11.2186 11.384 11.2186 11.377 11.2186 11.3699C11.2186 11.3629 11.2186 11.3558 11.2186 11.3488C11.2186 11.3418 11.2186 11.3348 11.2186 11.3278C11.2186 11.3208 11.2186 11.3138 11.2186 11.3069C11.2186 11.2999 11.2186 11.293 11.2186 11.286C11.2186 11.2791 11.2186 11.2722 11.2186 11.2653C11.2186 11.2584 11.2186 11.2515 11.2186 11.2446C11.2186 11.2377 11.2186 11.2309 11.2186 11.224C11.2186 11.2172 11.2186 11.2103 11.2186 11.2035C11.2186 11.1967 11.2186 11.1899 11.2186 11.1831C11.2186 11.1763 11.2186 11.1696 11.2186 11.1628C11.2186 11.1561 11.2186 11.1493 11.2186 11.1426C11.2186 11.1359 11.2186 11.1291 11.2186 11.1224C11.2186 11.1157 11.2186 11.1091 11.2186 11.1024C11.2186 11.0957 11.2186 11.0891 11.2186 11.0824C11.2186 11.0758 11.2186 11.0691 11.2186 11.0625C11.2186 11.0559 11.2186 11.0493 11.2186 11.0427C11.2186 11.0361 11.2186 11.0296 11.2186 11.023C11.2186 11.0165 11.2186 11.0099 11.2186 11.0034C11.2186 10.9969 11.2186 10.9903 11.2186 10.9838C11.2186 10.9773 11.2186 10.9709 11.2186 10.9644C11.2186 10.9579 11.2186 10.9515 11.2186 10.945C11.2186 10.9386 11.2186 10.9321 11.2186 10.9257C11.2186 10.9193 11.2186 10.9129 11.2186 10.9065C11.2186 10.9001 11.2186 10.8938 11.2186 10.8874C11.2186 10.881 11.2186 10.8747 11.2186 10.8684C11.2186 10.862 11.2186 10.8557 11.2186 10.8494C11.2186 10.8431 11.2186 10.8368 11.2186 10.8305C11.2186 10.8243 11.2186 10.818 11.2186 10.8118C11.2186 10.8055 11.2186 10.7993 11.2186 10.7931C11.2186 10.7868 11.2186 10.7806 11.2186 10.7744C11.2186 10.7682 11.2186 10.7621 11.2186 10.7559C11.2186 10.7497 11.2186 10.7436 11.2186 10.7374C11.2186 10.7313 11.2186 10.7252 11.2186 10.7191C11.2186 10.713 11.2186 10.7069 11.2186 10.7008C11.2186 10.6947 11.2186 10.6886 11.2186 10.6826C11.2186 10.6765 11.2186 10.6705 11.2186 10.6645C11.2186 10.6584 11.2186 10.6524 11.2186 10.6464C11.2186 10.6404 11.2186 10.6344 11.2186 10.6285C11.2186 10.6225 11.2186 10.6165 11.2186 10.6106C11.2186 10.6046 11.2186 10.5987 11.2186 10.5928C11.2186 10.5869 11.2186 10.581 11.2186 10.5751C11.2186 10.5692 11.2186 10.5633 11.2186 10.5574C11.2186 10.5516 11.2186 10.5457 11.2186 10.5399C11.2186 10.534 11.2186 10.5282 11.2186 10.5224C11.2186 10.5166 11.2186 10.5108 11.2186 10.505C11.2186 10.4992 11.2186 10.4934 11.2186 10.4877C11.2186 10.4819 11.2186 10.4762 11.2186 10.4705C11.2186 10.4647 11.2186 10.459 11.2186 10.4533C11.2186 10.4476 11.2186 10.4419 11.2186 10.4362C11.2186 10.4305 11.2186 10.4249 11.2186 10.4192C11.2186 10.4136 11.2186 10.4079 11.2186 10.4023C11.2186 10.3967 11.2186 10.3911 11.2186 10.3855C11.2186 10.3799 11.2186 10.3743 11.2186 10.3687C11.2186 10.3631 11.2186 10.3576 11.2186 10.352C11.2186 10.3465 11.2186 10.341 11.2186 10.3354C11.2186 10.3299 11.2186 10.3244 11.2186 10.3189C11.2186 10.3134 11.2186 10.3079 11.2186 10.3025C11.2186 10.297 11.2186 10.2916 11.2186 10.2861C11.2186 10.2807 11.2186 10.2752 11.2186 10.2698C11.2186 10.2644 11.2186 10.259 11.2186 10.2536C11.2186 10.2482 11.2186 10.2428 11.2186 10.2375C11.2186 10.2321 11.2186 10.2268 11.2186 10.2214C11.2186 10.2161 11.2186 10.2108 11.2186 10.2054C11.2186 10.2001 11.2186 10.1948 11.2186 10.1895C11.2186 10.1842 11.2186 10.179 11.2186 10.1737C11.2186 10.1684 11.2186 10.1632 11.2186 10.158C11.2186 10.1527 11.2186 10.1475 11.2186 10.1423C11.2186 10.1371 11.2186 10.1319 11.2186 10.1267C11.2186 10.1215 11.2186 10.1163 11.2186 10.1112C11.2186 10.106 11.2186 10.1009 11.2186 10.0957C11.2186 10.0906 11.2186 10.0855 11.2186 10.0804C11.2186 10.0752 11.2186 10.0701 11.2186 10.0651C11.2186 10.06 11.2186 10.0549 11.2186 10.0498C11.2186 10.0448 11.2186 10.0397 11.2186 10.0347C11.2186 10.0297 11.2186 10.0246 11.2186 10.0196C11.2186 10.0146 11.2186 10.0096 11.2186 10.0046C11.2186 9.99964 11.2186 9.99467 11.2186 9.98971C11.2186 9.98474 11.2186 9.9798 11.2186 9.97486C11.2186 9.96992 11.2186 9.965 11.2186 9.96009C11.2186 9.95517 11.2186 9.95027 11.2186 9.94539C11.2186 9.9405 11.2186 9.93563 11.2186 9.93076C11.2186 9.9259 11.2186 9.92105 11.2186 9.91621C11.2186 9.91137 11.2186 9.90655 11.2186 9.90173C11.2186 9.89692 11.2186 9.89212 11.2186 9.88733C11.2186 9.88254 11.2186 9.87776 11.2186 9.873C11.2186 9.86823 11.2186 9.86348 11.2186 9.85874C11.2186 9.85399 11.2186 9.84927 11.2186 9.84455C11.2186 9.83983 11.2186 9.83513 11.2186 9.83043C11.2186 9.82574 11.2186 9.82106 11.2186 9.81639C11.2186 9.81172 11.2186 9.80707 11.2186 9.80242C11.2186 9.79778 11.2186 9.79314 11.2186 9.78852C11.2186 9.7839 11.2186 9.77929 11.2186 9.7747C11.2186 9.7701 11.2186 9.76551 11.2186 9.76094C11.2186 9.75637 11.2186 9.75181 11.2186 9.74726C11.2186 9.74271 11.2186 9.73817 11.2186 9.73364C11.2186 9.72912 11.2186 9.7246 11.2186 9.7201C11.2186 9.7156 11.2186 9.71111 11.2186 9.70663C11.2186 9.70215 11.2186 9.69768 11.2186 9.69323C11.2186 9.68877 11.2186 9.68433 11.2186 9.6799C11.2186 9.67547 11.2186 9.67105 11.2186 9.66664C11.2186 9.66223 11.2186 9.65783 11.2186 9.65345C11.2186 9.64906 11.2186 9.64469 11.2186 9.64033C11.2186 9.63597 11.2186 9.63161 11.2186 9.62728C11.2186 9.62294 11.2186 9.61861 11.2186 9.61429C11.2186 9.60998 11.2186 9.60567 11.2186 9.60138C11.2186 9.59709 11.2186 9.59281 11.2186 9.58854C11.2186 9.58427 11.2186 9.58001 11.2186 9.57576C11.2186 9.57152 11.2186 9.56728 11.2186 9.56306C11.2186 9.55883 11.2186 9.55462 11.2186 9.55042C11.2186 9.54622 11.2186 9.54203 11.2186 9.53785C11.2186 9.53367 11.2186 9.52951 11.2186 9.52535C11.2186 9.5212 11.2186 9.51705 11.2186 9.51292C11.2186 9.50879 11.2186 9.50466 11.2186 9.50055C11.2186 9.49644 11.2186 9.49234 11.2186 9.48826C11.2186 9.48417 11.2186 9.48009 11.2186 9.47603C11.2186 9.47196 11.2186 9.46791 11.2186 9.46386C11.2186 9.45982 11.2186 9.45579 11.2186 9.45177C11.2186 9.44775 11.2186 9.44374 11.2186 9.43974C11.2186 9.43574 11.2186 9.43175 11.2186 9.42778C11.2186 9.4238 11.2186 9.41983 11.2186 9.41588C11.2186 9.41192 11.2186 9.40798 11.2186 9.40405C11.2186 9.40012 11.2186 9.3962 11.2186 9.39229C11.2186 9.38838 11.2186 9.38448 11.2186 9.38059C11.2186 9.3767 11.2186 9.37282 11.2186 9.36896C11.2186 9.36509 11.2186 9.36123 11.2186 9.35739C11.2186 9.35354 11.2186 9.34971 11.2186 9.34589C11.2186 9.34207 11.2186 9.33825 11.2186 9.33445C11.2186 9.33065 11.2186 9.32686 11.2186 9.32308C11.2186 9.3193 11.2186 9.31553 11.2186 9.31177C11.2186 9.30802 11.2186 9.30427 11.2186 9.30053C11.2186 9.2968 11.2186 9.29307 11.2186 9.28936C11.2186 9.28564 11.2186 9.28194 11.2186 9.27824C11.2186 9.27455 11.2186 9.27087 11.2186 9.26719C11.2186 9.26352 11.2186 9.25986 11.2186 9.25621C11.2186 9.25256 11.2186 9.24892 11.2186 9.24529C11.2186 9.24166 11.2186 9.23804 11.2186 9.23443C11.2186 9.23082 11.2186 9.22722 11.2186 9.22363C11.2186 9.22005 11.2186 9.21647 11.2186 9.2129C11.2186 9.20934 11.2186 9.20578 11.2186 9.20223C11.2186 9.19869 11.2186 9.19515 11.2186 9.19163C11.2186 9.1881 11.2186 9.18459 11.2186 9.18109C11.2186 9.17758 11.2186 9.17409 11.2186 9.17061C11.2186 9.16712 11.2186 9.16365 11.2186 9.16019C11.2186 9.15672 11.2186 9.15327 11.2186 9.14983C11.2186 9.14639 11.2186 9.14296 11.2186 9.13954C11.2186 9.13611 11.2186 9.1327 11.2186 9.1293C11.2186 9.1259 11.2186 9.12251 11.2186 9.11913C11.2186 9.11575 11.2186 9.11238 11.2186 9.10902C11.2186 9.10566 11.2186 9.10231 11.2186 9.09897C11.2186 9.09563 11.2186 9.0923 11.2186 9.08898C11.2186 9.08566 11.2186 9.08235 11.2186 9.07905C11.2186 9.07576 11.2186 9.07247 11.2186 9.06919C11.2186 9.06591 11.2186 9.06264 11.2186 9.05938C11.2186 9.05612 11.2186 9.05287 11.2186 9.04963C11.2186 9.0464 11.2186 9.04317 11.2186 9.03995C11.2186 9.03673 11.2186 9.03352 11.2186 9.03032C11.2186 9.02712 11.2186 9.02393 11.2186 9.02075C11.2186 9.01757 11.2186 9.01441 11.2186 9.01125C11.2186 9.00809 11.2186 9.00494 11.2186 9.0018C11.2186 8.99866 11.2186 8.99553 11.2186 8.99241C11.2186 8.98929 11.2186 8.98618 11.2186 8.98308C11.2186 8.97998 11.2186 8.97689 11.2186 8.9738C11.2186 8.97072 11.2186 8.96765 11.2186 8.96459C11.2186 8.96153 11.2186 8.95848 11.2186 8.95544C11.2186 8.95239 11.2186 8.94936 11.2186 8.94634C11.2186 8.94332 11.2186 8.9403 11.2186 8.9373C11.2186 8.9343 11.2186 8.9313 11.2186 8.92832C11.2186 8.92533 11.2186 8.92236 11.2186 8.9194C11.2186 8.91643 11.2186 8.91347 11.2186 8.91053C11.2186 8.90758 11.2186 8.90465 11.2186 8.90172C11.2186 8.89879 11.2186 8.89588 11.2186 8.89297C11.2186 8.89006 11.2186 8.88716 11.2186 8.88427C11.2186 8.88138 11.2186 8.8785 11.2186 8.87563C11.2186 8.87276 11.2186 8.8699 11.2186 8.86705C11.2186 8.8642 11.2186 8.86136 11.2186 8.85853C11.2186 8.85569 11.2186 8.85287 11.2186 8.85006C11.2186 8.84724 11.2186 8.84444 11.2186 8.84164C11.2186 8.83885 11.2186 8.83606 11.2186 8.83328C11.2186 8.83051 11.2186 8.82774 11.2186 8.82498C11.2186 8.82222 11.2186 8.81947 11.2186 8.81673C11.2186 8.81399 11.2186 8.81126 11.2186 8.80854C11.2186 8.80582 11.2186 8.80311 11.2186 8.8004C11.2186 8.7977 11.2186 8.79501 11.2186 8.79232C11.2186 8.78964 11.2186 8.78696 11.2186 8.78429C11.2186 8.78163 11.2186 8.77897 11.2186 8.77632C11.2186 8.77367 11.2186 8.77103 11.2186 8.7684C11.2186 8.76577 11.2186 8.76315 11.2186 8.76054C11.2186 8.75792 11.2186 8.75532 11.2186 8.75273C11.2186 8.75013 11.2186 8.74754 11.2186 8.74497C11.2186 8.74239 11.2186 8.73982 11.2186 8.73726C11.2186 8.7347 11.2186 8.73215 11.2186 8.72961C11.2186 8.72707 11.2186 8.72454 11.2186 8.72202C11.2186 8.71949 11.2186 8.71698 11.2186 8.71447C11.2186 8.71196 11.2186 8.70947 11.2186 8.70698C11.2186 8.70449 11.2186 8.70201 11.2186 8.69954C11.2186 8.69707 11.2186 8.69461 11.2186 8.69215C11.2186 8.6897 11.2186 8.68725 11.2186 8.68482C11.2186 8.68238 11.2186 8.67995 11.2186 8.67754C11.2186 8.67512 11.2186 8.67271 11.2186 8.6703C11.2186 8.6679 11.2186 8.66551 11.2186 8.66313C11.2186 8.66074 11.2186 8.65836 11.2186 8.656C11.2186 8.65363 11.2186 8.65127 11.2186 8.64892C11.2186 8.64657 11.2186 8.64423 11.2186 8.6419C11.2186 8.63956 11.2186 8.63724 11.2186 8.63492C11.2186 8.6326 11.2186 8.6303 11.2186 8.628C11.2186 8.6257 11.2186 8.62341 11.2186 8.62112C11.2186 8.61884 11.2186 8.61657 11.2186 8.6143C11.2186 8.61204 11.2186 8.60978 11.2186 8.60753C11.2186 8.60528 11.2186 8.60304 11.2186 8.60081C11.2186 8.59857 11.2186 8.59635 11.2186 8.59413C11.2186 8.59192 11.2186 8.58971 11.2186 8.58751C11.2186 8.58531 11.2186 8.58312 11.2186 8.58094C11.2186 8.57875 11.2186 8.57658 11.2186 8.57441C11.2186 8.57224 11.2186 8.57009 11.2186 8.56794C11.2186 8.56579 11.2186 8.56364 11.2186 8.56151C11.2186 8.55938 11.2186 8.55725 11.2186 8.55513C11.2186 8.55301 11.2186 8.5509 11.2186 8.5488C11.2186 8.5467 11.2186 8.54461 11.2186 8.54252C11.2186 8.54044 11.2186 8.53836 11.2186 8.53629C11.2186 8.53422 11.2186 8.53216 11.2186 8.5301C11.2186 8.52805 11.2186 8.526 11.2186 8.52397C11.2186 8.52193 11.2186 8.5199 11.2186 8.51788C11.2186 8.51585 11.2186 8.51384 11.2186 8.51183C11.2186 8.50983 11.2186 8.50783 11.2186 8.50584C11.2186 8.50385 11.2186 8.50186 11.2186 8.49989C11.2186 8.49791 11.2186 8.49595 11.2186 8.49399C11.2186 8.49203 11.2186 8.49008 11.2186 8.48813C11.2186 8.48619 11.2186 8.48425 11.2186 8.48233C11.2186 8.4804 11.2186 8.47848 11.2186 8.47656C11.2186 8.47465 11.2186 8.47275 11.2186 8.47085C11.2186 8.46895 11.2186 8.46706 11.2186 8.46518C11.2186 8.4633 11.2186 8.46142 11.2186 8.45955C11.2186 8.45769 11.2186 8.45583 11.2186 8.45398C11.2186 8.45212 11.2186 8.45028 11.2186 8.44844C11.2186 8.44661 11.2186 8.44478 11.2186 8.44295C11.2186 8.44113 11.2186 8.43932 11.2186 8.43751C11.2186 8.4357 11.2186 8.4339 11.2186 8.43211C11.2186 8.43032 11.2186 8.42854 11.2186 8.42676C11.2186 8.42498 11.2186 8.42321 11.2186 8.42145C11.2186 8.41969 11.2186 8.41793 11.2186 8.41618C11.2186 8.41444 11.2186 8.4127 11.2186 8.41096C11.2186 8.40923 11.2186 8.4075 11.2186 8.40579C11.2186 8.40407 11.2186 8.40236 11.2186 8.40065C11.2186 8.39895 11.2186 8.39725 11.2186 8.39556C11.2186 8.39387 11.2186 8.39219 11.2186 8.39052C11.2186 8.38884 11.2186 8.38717 11.2186 8.38551C11.2186 8.38385 11.2186 8.3822 11.2186 8.38055C11.2186 8.37891 11.2186 8.37727 11.2186 8.37563C11.2186 8.374 11.2186 8.37238 11.2186 8.37076C11.2186 8.36914 11.2186 8.36753 11.2186 8.36593C11.2186 8.36432 11.2186 8.36273 11.2186 8.36114C11.2186 8.35955 11.2186 8.35796 11.2186 8.35639C11.2186 8.35481 11.2186 8.35324 11.2186 8.35168C11.2186 8.35012 11.2186 8.34856 11.2186 8.34702C11.2186 8.34547 11.2186 8.34393 11.2186 8.34239C11.2186 8.34086 11.2186 8.33933 11.2186 8.33781C11.2186 8.33629 11.2186 8.33478 11.2186 8.33327C11.2186 8.33176 11.2186 8.33026 11.2186 8.32877C11.2186 8.32728 11.2186 8.32579 11.2186 8.32431C11.2186 8.32283 11.2186 8.32136 11.2186 8.31989C11.2186 8.31842 11.2186 8.31696 11.2186 8.31551C11.2186 8.31406 11.2186 8.31261 11.2186 8.31117C11.2186 8.30973 11.2186 8.3083 11.2186 8.30687C11.2186 8.30545 11.2186 8.30403 11.2186 8.30262C11.2186 8.3012 11.2186 8.2998 11.2186 8.2984C11.2186 8.297 11.2186 8.2956 11.2186 8.29422C11.2186 8.29283 11.2186 8.29145 11.2186 8.29008C11.2186 8.2887 11.2186 8.28734 11.2186 8.28597C11.2186 8.28461 11.2186 8.28326 11.2186 8.28191C11.2186 8.28056 11.2186 8.27922 11.2186 8.27789C11.2186 8.27655 11.2186 8.27523 11.2186 8.2739C11.2186 8.27258 11.2186 8.27127 11.2186 8.26996C11.2186 8.26865 11.2186 8.26734 11.2186 8.26605C11.2186 8.26475 11.2186 8.26346 11.2186 8.26218C11.2186 8.26089 11.2186 8.25961 11.2186 8.25834C11.2186 8.25707 11.2186 8.25581 11.2186 8.25455C11.2186 8.25329 11.2186 8.25204 11.2186 8.25079C11.2186 8.24954 11.2186 8.2483 11.2186 8.24707C11.2186 8.24583 11.2186 8.24461 11.2186 8.24338C11.2186 8.24216 11.2186 8.24095 11.2186 8.23974C11.2186 8.23853 11.2186 8.23732 11.2186 8.23613C11.2186 8.23493 11.2186 8.23374 11.2186 8.23255C11.2186 8.23137 11.2186 8.23019 11.2186 8.22902C11.2186 8.22784 11.2186 8.22668 11.2186 8.22551C11.2186 8.22435 11.2186 8.2232 11.2186 8.22205C11.2186 8.2209 11.2186 8.21976 11.2186 8.21862C11.2186 8.21748 11.2186 8.21635 11.2186 8.21522C11.2186 8.2141 11.2186 8.21298 11.2186 8.21186C11.2186 8.21075 11.2186 8.20964 11.2186 8.20854C11.2186 8.20744 11.2186 8.20634 11.2186 8.20525C11.2186 8.20416 11.2186 8.20308 11.2186 8.202C11.2186 8.20092 11.2186 8.19985 11.2186 8.19878C11.2186 8.19771 11.2186 8.19665 11.2186 8.19559C11.2186 8.19454 11.2186 8.19349 11.2186 8.19244C11.2186 8.1914 11.2186 8.19036 11.2186 8.18933C11.2186 8.18829 11.2186 8.18727 11.2186 8.18624C11.2186 8.18522 11.2186 8.1842 11.2186 8.18319C11.2186 8.18218 11.2186 8.18118 11.2186 8.18018C11.2186 8.17918 11.2186 8.17818 11.2186 8.1772C11.2186 8.17621 11.2186 8.17522 11.2186 8.17425C11.2186 8.17327 11.2186 8.1723 11.2186 8.17133C11.2186 8.17036 11.2186 8.1694 11.2186 8.16845C11.2186 8.16749 11.2186 8.16654 11.2186 8.1656C11.2186 8.16465 11.2186 8.16371 11.2186 8.16278C11.2186 8.16184 11.2186 8.16091 11.2186 8.15999C11.2186 8.15907 11.2186 8.15815 11.2186 8.15724C11.2186 8.15632 11.2186 8.15542 11.2186 8.15451C11.2186 8.15361 11.2186 8.15272 11.2186 8.15182C11.2186 8.15093 11.2186 8.15005 11.2186 8.14916C11.2186 8.14828 11.2186 8.14741 11.2186 8.14654C11.2186 8.14567 11.2186 8.1448 11.2186 8.14394C11.2186 8.14308 11.2186 8.14222 11.2186 8.14137C11.2186 8.14052 11.2186 8.13968 11.2186 8.13884C11.2186 8.138 11.2186 8.13716 11.2186 8.13633C11.2186 8.1355 11.2186 8.13468 11.2186 8.13386C11.2186 8.13304 11.2186 8.13223 11.2186 8.13142C11.2186 8.13061 11.2186 8.1298 11.2186 8.129C11.2186 8.1282 11.2186 8.12741 11.2186 8.12662C11.2186 8.12583 11.2186 8.12504 11.2186 8.12426C11.2186 8.12348 11.2186 8.12271 11.2186 8.12194C11.2186 8.12117 11.2186 8.1204 11.2186 8.11964C11.2186 8.11888 11.2186 8.11812 11.2186 8.11737C11.2186 8.11662 11.2186 8.11588 11.2186 8.11514C11.2186 8.11439 11.2186 8.11366 11.2186 8.11293C11.2186 8.11219 11.2186 8.11147 11.2186 8.11075C11.2186 8.11002 11.2186 8.10931 11.2186 8.10859C11.2186 8.10788 11.2186 8.10717 11.2186 8.10647C11.2186 8.10576 11.2186 8.10507 11.2186 8.10437C11.2186 8.10368 11.2186 8.10299 11.2186 8.1023C11.2186 8.10162 11.2186 8.10094 11.2186 8.10026C11.2186 8.09959 11.2186 8.09891 11.2186 8.09825C11.2186 8.09758 11.2186 8.09692 11.2186 8.09626C11.2186 8.0956 11.2186 8.09495 11.2186 8.0943C11.2186 8.09365 11.2186 8.09301 11.2186 8.09237C11.2186 8.09173 11.2186 8.09109 11.2186 8.09046C11.2186 8.08983 11.2186 8.08921 11.2186 8.08858C11.2186 8.08796 11.2186 8.08734 11.2186 8.08673C11.2186 8.08612 11.2186 8.08551 11.2186 8.0849C11.2186 8.0843 11.2186 8.0837 11.2186 8.0831C11.2186 8.08251 11.2186 8.08191 11.2186 8.08133C11.2186 8.08074 11.2186 8.08016 11.2186 8.07958C11.2186 8.079 11.2186 8.07842 11.2186 8.07785C11.2186 8.07728 11.2186 8.07671 11.2186 8.07615C11.2186 8.07559 11.2186 8.07503 11.2186 8.07448C11.2186 8.07392 11.2186 8.07337 11.2186 8.07283C11.2186 8.07228 11.2186 8.07174 11.2186 8.0712C11.2186 8.07067 11.2186 8.07013 11.2186 8.0696C11.2186 8.06907 11.2186 8.06855 11.2186 8.06803C11.2186 8.0675 11.2186 8.06699 11.2186 8.06647C11.2186 8.06596 11.2186 8.06545 11.2186 8.06495C11.2186 8.06444 11.2186 8.06394 11.2186 8.06344C11.2186 8.06294 11.2186 8.06245 11.2186 8.06196C11.2186 8.06147 11.2186 8.06098 11.2186 8.0605C11.2186 8.06002 11.2186 8.05954 11.2186 8.05907C11.2186 8.05859 11.2186 8.05812 11.2186 8.05766C11.2186 8.05719 11.2186 8.05673 11.2186 8.05627C11.2186 8.05581 11.2186 8.05535 11.2186 8.0549C11.2186 8.05445 11.2186 8.054 11.2186 8.05356C11.2186 8.05311 11.2186 8.05267 11.2186 8.05223C11.2186 8.0518 11.2186 8.05136 11.2186 8.05093C11.2186 8.0505 11.2186 8.05008 11.2186 8.04966C11.2186 8.04923 11.2186 8.04882 11.2186 8.0484C11.2186 8.04798 11.2186 8.04757 11.2186 8.04717C11.2186 8.04676 11.2186 8.04635 11.2186 8.04595C11.2186 8.04555 11.2186 8.04515 11.2186 8.04476C11.2186 8.04437 11.2186 8.04398 11.2186 8.04359C11.2186 8.0432 11.2186 8.04282 11.2186 8.04244C11.2186 8.04206 11.2186 8.04168 11.2186 8.04131C11.2186 8.04093 11.2186 8.04056 11.2186 8.0402C11.2186 8.03983 11.2186 8.03947 11.2186 8.03911C11.2186 8.03875 11.2186 8.03839 11.2186 8.03804C11.2186 8.03768 11.2186 8.03733 11.2186 8.03699C11.2186 8.03664 11.2186 8.0363 11.2186 8.03596C11.2186 8.03562 11.2186 8.03528 11.2186 8.03495C11.2186 8.03461 11.2186 8.03428 11.2186 8.03396C11.2186 8.03363 11.2186 8.0333 11.2186 8.03298C11.2186 8.03266 11.2186 8.03234 11.2186 8.03203C11.2186 8.03171 11.2186 8.0314 11.2186 8.03109C11.2186 8.03079 11.2186 8.03048 11.2186 8.03018C11.2186 8.02988 11.2186 8.02958 11.2186 8.02928C11.2186 8.02898 11.2186 8.02869 11.2186 8.0284C11.2186 8.02811 11.2186 8.02782 11.2186 8.02754C11.2186 8.02725 11.2186 8.02697 11.2186 8.02669C11.2186 8.02642 11.2186 8.02614 11.2186 8.02587C11.2186 8.02559 11.2186 8.02533 11.2186 8.02506C11.2186 8.02479 11.2186 8.02453 11.2186 8.02427C11.2186 8.02401 11.2186 8.02375 11.2186 8.02349C11.2186 8.02324 11.2186 8.02298 11.2186 8.02273C11.2186 8.02248 11.2186 8.02224 11.2186 8.02199C11.2186 8.02175 11.2186 8.02151 11.2186 8.02127C11.2186 8.02103 11.2186 8.02079 11.2186 8.02056C11.2186 8.02032 11.2186 8.02009 11.2186 8.01987C11.2186 8.01964 11.2186 8.01941 11.2186 8.01919C11.2186 8.01897 11.2186 8.01875 11.2186 8.01853C11.2186 8.01831 11.2186 8.0181 11.2186 8.01788C11.2186 8.01767 11.2186 8.01746 11.2186 8.01725C11.2186 8.01705 11.2186 8.01684 11.2186 8.01664C11.2186 8.01644 11.2186 8.01624 11.2186 8.01604C11.2186 8.01584 11.2186 8.01565 11.2186 8.01545C11.2186 8.01526 11.2186 8.01507 11.2186 8.01488C11.2186 8.01469 11.2186 8.01451 11.2186 8.01433C11.2186 8.01414 11.2186 8.01396 11.2186 8.01379C11.2186 8.01361 11.2186 8.01343 11.2186 8.01326C11.2186 8.01308 11.2186 8.01291 11.2186 8.01274C11.2186 8.01257 11.2186 8.01241 11.2186 8.01224C11.2186 8.01208 11.2186 8.01192 11.2186 8.01176C11.2186 8.0116 11.2186 8.01144 11.2186 8.01128C11.2186 8.01113 11.2186 8.01098 11.2186 8.01082C11.2186 8.01067 11.2186 8.01052 11.2186 8.01038C11.2186 8.01023 11.2186 8.01009 11.2186 8.00994C11.2186 8.0098 11.2186 8.00966 11.2186 8.00952C11.2186 8.00938 11.2186 8.00925 11.2186 8.00911C11.2186 8.00898 11.2186 8.00884 11.2186 8.00871C11.2186 8.00858 11.2186 8.00846 11.2186 8.00833C11.2186 8.0082 11.2186 8.00808 11.2186 8.00796C11.2186 8.00783 11.2186 8.00771 11.2186 8.00759C11.2186 8.00748 11.2186 8.00736 11.2186 8.00724C11.2186 8.00713 11.2186 8.00702 11.2186 8.00691C11.2186 8.00679 11.2186 8.00669 11.2186 8.00658C11.2186 8.00647 11.2186 8.00636 11.2186 8.00626C11.2186 8.00616 11.2186 8.00606 11.2186 8.00595C11.2186 8.00585 11.2186 8.00576 11.2186 8.00566C11.2186 8.00556 11.2186 8.00547 11.2186 8.00537C11.2186 8.00528 11.2186 8.00519 11.2186 8.0051C11.2186 8.00501 11.2186 8.00492 11.2186 8.00483C11.2186 8.00475 11.2186 8.00466 11.2186 8.00458C11.2186 8.0045 11.2186 8.00441 11.2186 8.00433C11.2186 8.00425 11.2186 8.00417 11.2186 8.0041C11.2186 8.00402 11.2186 8.00395 11.2186 8.00387C11.2186 8.0038 11.2186 8.00372 11.2186 8.00365C11.2186 8.00358 11.2186 8.00351 11.2186 8.00344C11.2186 8.00338 11.2186 8.00331 11.2186 8.00324C11.2186 8.00318 11.2186 8.00312 11.2186 8.00305C11.2186 8.00299 11.2186 8.00293 11.2186 8.00287C11.2186 8.00281 11.2186 8.00275 11.2186 8.00269C11.2186 8.00264 11.2186 8.00258 11.2186 8.00253C11.2186 8.00247 11.2186 8.00242 11.2186 8.00237C11.2186 8.00232 11.2186 8.00227 11.2186 8.00222C11.2186 8.00217 11.2186 8.00212 11.2186 8.00207C11.2186 8.00202 11.2186 8.00198 11.2186 8.00193C11.2186 8.00189 11.2186 8.00185 11.2186 8.0018C11.2186 8.00176 11.2186 8.00172 11.2186 8.00168C11.2186 8.00164 11.2186 8.0016 11.2186 8.00156C11.2186 8.00153 11.2186 8.00149 11.2186 8.00145C11.2186 8.00142 11.2186 8.00138 11.2186 8.00135C11.2186 8.00132 11.2186 8.00128 11.2186 8.00125C11.2186 8.00122 11.2186 8.00119 11.2186 8.00116C11.2186 8.00113 11.2186 8.0011 11.2186 8.00107C11.2186 8.00105 11.2186 8.00102 11.2186 8.00099C11.2186 8.00097 11.2186 8.00094 11.2186 8.00092C11.2186 8.00089 11.2186 8.00087 11.2186 8.00085C11.2186 8.00083 11.2186 8.0008 11.2186 8.00078C11.2186 8.00076 11.2186 8.00074 11.2186 8.00072C11.2186 8.0007 11.2186 8.00069 11.2186 8.00067C11.2186 8.00065 11.2186 8.00063 11.2186 8.00062C11.2186 8.0006 11.2186 8.00058 11.2186 8.00057C11.2186 8.00055 11.2186 8.00054 11.2186 8.00053C11.2186 8.00051 11.2186 8.0005 11.2186 8.00049C11.2186 8.00048 11.2186 8.00046 11.2186 8.00045C11.2186 8.00044 11.2186 8.00043 11.2186 8.00042C11.2186 8.00041 11.2186 8.0004 11.2186 8.00039C11.2186 8.00038 11.2186 8.00038 11.2186 8.00037C11.2186 8.00036 11.2186 8.00035 11.2186 8.00035C11.2186 8.00034 11.2186 8.00033 11.2186 8.00033C11.2186 8.00032 11.2186 8.00031 11.2186 8.00031C11.2186 8.0003 11.2186 8.0003 11.2186 8.00029C11.2186 8.00029 11.2186 8.00029 11.2186 8.00028C11.2186 8.00028 11.2186 8.00028 11.2186 8.00027C11.2186 8.00027 11.2186 8.00027 11.2186 8.00026C11.2186 8.00026 11.2186 8.00026 11.2186 8.00026C11.2186 8.00025 11.2186 8.00025 11.2186 8.00025C11.2186 8.00025 11.2186 8.00025 11.2186 8.00025C11.2186 8.00025 11.2186 8.00025 11.2186 8.00024C11.2186 8.00024 11.2186 8.00024 11.2186 8.00024C11.2186 8.00024 11.2186 8.00024 11.2186 8.00024C11.2186 8.00024 11.2186 8.00024 11.2186 8.00024C11.2186 8.00024 11.2186 8.00024 11.2186 8.00024C11.2186 8.00024 11.2186 8.00024 10.6186 8.00024ZM10.0186 12.1413C10.0186 12.1425 10.0186 12.1436 10.0186 12.1448C10.0186 12.1459 10.0186 12.1471 10.0186 12.1482C10.0186 12.1494 10.0186 12.1505 10.0186 12.1517C10.0186 12.1528 10.0186 12.154 10.0186 12.1552C10.0186 12.1563 10.0186 12.1575 10.0186 12.1586C10.0186 12.1598 10.0186 12.161 10.0186 12.1621C10.0186 12.1633 10.0186 12.1645 10.0186 12.1656C10.0186 12.1668 10.0186 12.1679 10.0186 12.1691C10.0186 12.1703 10.0186 12.1715 10.0186 12.1726C10.0186 12.1738 10.0186 12.175 10.0186 12.1761C10.0186 12.1773 10.0186 12.1785 10.0186 12.1797C10.0186 12.1808 10.0186 12.182 10.0186 12.1832C10.0186 12.1844 10.0186 12.1855 10.0186 12.1867C10.0186 12.1879 10.0186 12.1891 10.0186 12.1903C10.0186 12.1915 10.0186 12.1926 10.0186 12.1938C10.0186 12.195 10.0186 12.1962 10.0186 12.1974C10.0186 12.1986 10.0186 12.1997 10.0186 12.2009C10.0186 12.2021 10.0186 12.2033 10.0186 12.2045C10.0186 12.2057 10.0186 12.2069 10.0186 12.2081C10.0186 12.2093 10.0186 12.2105 10.0186 12.2117C10.0186 12.2129 10.0186 12.2141 10.0186 12.2153C10.0186 12.2164 10.0186 12.2176 10.0186 12.2188C10.0186 12.22 10.0186 12.2212 10.0186 12.2224C10.0186 12.2237 10.0186 12.2249 10.0186 12.2261C10.0186 12.2273 10.0186 12.2285 10.0186 12.2297C10.0186 12.2309 10.0186 12.2321 10.0186 12.2333C10.0186 12.2345 10.0186 12.2357 10.0186 12.2369C10.0186 12.2381 10.0186 12.2393 10.0186 12.2405C10.0186 12.2418 10.0186 12.243 10.0186 12.2442C10.0186 12.2454 10.0186 12.2466 10.0186 12.2478C10.0186 12.249 10.0186 12.2503 10.0186 12.2515C10.0186 12.2527 10.0186 12.2539 10.0186 12.2551C10.0186 12.2564 10.0186 12.2576 10.0186 12.2588C10.0186 12.26 10.0186 12.2612 10.0186 12.2625C10.0186 12.2637 10.0186 12.2649 10.0186 12.2661C10.0186 12.2674 10.0186 12.2686 10.0186 12.2698C10.0186 12.271 10.0186 12.2723 10.0186 12.2735C10.0186 12.2747 10.0186 12.276 10.0186 12.2772C10.0186 12.2784 10.0186 12.2797 10.0186 12.2809C10.0186 12.2821 10.0186 12.2834 10.0186 12.2846C10.0186 12.2858 10.0186 12.2871 10.0186 12.2883C10.0186 12.2895 10.0186 12.2908 10.0186 12.292C10.0186 12.2932 10.0186 12.2945 10.0186 12.2957C10.0186 12.297 10.0186 12.2982 10.0186 12.2994C10.0186 12.3007 10.0186 12.3019 10.0186 12.3032C10.0186 12.3044 10.0186 12.3057 10.0186 12.3069C10.0186 12.3081 10.0186 12.3094 10.0186 12.3106C10.0186 12.3119 10.0186 12.3131 10.0186 12.3144C10.0186 12.3156 10.0186 12.3169 10.0186 12.3181C10.0186 12.3194 10.0186 12.3206 10.0186 12.3219C10.0186 12.3231 10.0186 12.3244 10.0186 12.3256C10.0186 12.3269 10.0186 12.3281 10.0186 12.3294C10.0186 12.3306 10.0186 12.3319 10.0186 12.3332C10.0186 12.3344 10.0186 12.3357 10.0186 12.3369C10.0186 12.3382 10.0186 12.3394 10.0186 12.3407C10.0186 12.342 10.0186 12.3432 10.0186 12.3445C10.0186 12.3457 10.0186 12.347 10.0186 12.3483C10.0186 12.3495 10.0186 12.3508 10.0186 12.352C10.0186 12.3533 10.0186 12.3546 10.0186 12.3558C10.0186 12.3571 10.0186 12.3584 10.0186 12.3596C10.0186 12.3609 10.0186 12.3622 10.0186 12.3634C10.0186 12.3647 10.0186 12.366 10.0186 12.3672C10.0186 12.3685 10.0186 12.3698 10.0186 12.371C10.0186 12.3723 10.0186 12.3736 10.0186 12.3749C10.0186 12.3761 10.0186 12.3774 10.0186 12.3787C10.0186 12.3799 10.0186 12.3812 10.0186 12.3825C10.0186 12.3838 10.0186 12.385 10.0186 12.3863C10.0186 12.3876 10.0186 12.3889 10.0186 12.3901C10.0186 12.3914 10.0186 12.3927 10.0186 12.394C10.0186 12.3953 10.0186 12.3965 10.0186 12.3978C10.0186 12.3991 10.0186 12.4004 10.0186 12.4017C10.0186 12.4029 10.0186 12.4042 10.0186 12.4055C10.0186 12.4068 10.0186 12.4081 10.0186 12.4093C10.0186 12.4106 10.0186 12.4119 10.0186 12.4132C10.0186 12.4145 10.0186 12.4158 10.0186 12.417C10.0186 12.4183 10.0186 12.4196 10.0186 12.4209C10.0186 12.4222 10.0186 12.4235 10.0186 12.4248C10.0186 12.426 10.0186 12.4273 10.0186 12.4286C10.0186 12.4299 10.0186 12.4312 10.0186 12.4325C10.0186 12.4338 10.0186 12.4351 10.0186 12.4364C10.0186 12.4377 10.0186 12.4389 10.0186 12.4402C10.0186 12.4415 10.0186 12.4428 10.0186 12.4441C10.0186 12.4454 10.0186 12.4467 10.0186 12.448C10.0186 12.4493 10.0186 12.4506 10.0186 12.4519C10.0186 12.4532 10.0186 12.4545 10.0186 12.4558C10.0186 12.457 10.0186 12.4583 10.0186 12.4596C10.0186 12.4609 10.0186 12.4622 10.0186 12.4635C10.0186 12.4648 10.0186 12.4661 10.0186 12.4674C10.0186 12.4687 10.0186 12.47 10.0186 12.4713C10.0186 12.4726 10.0186 12.4739 10.0186 12.4752C10.0186 12.4765 10.0186 12.4778 10.0186 12.4791C10.0186 12.4804 10.0186 12.4817 10.0186 12.483C10.0186 12.4843 10.0186 12.4856 10.0186 12.4869C10.0186 12.4882 10.0186 12.4895 10.0186 12.4908C10.0186 12.4921 10.0186 12.4934 10.0186 12.4947C10.0186 12.496 10.0186 12.4973 10.0186 12.4987C10.0186 12.5 10.0186 12.5013 10.0186 12.5026C10.0186 12.5039 10.0186 12.5052 10.0186 12.5065C10.0186 12.5078 10.0186 12.5091 10.0186 12.5104C10.0186 12.5117 10.0186 12.513 10.0186 12.5143C10.0186 12.5156 10.0186 12.5169 10.0186 12.5182C10.0186 12.5196 10.0186 12.5209 10.0186 12.5222C10.0186 12.5235 10.0186 12.5248 10.0186 12.5261C10.0186 12.5274 10.0186 12.5287 10.0186 12.53C10.0186 12.5313 10.0186 12.5326 10.0186 12.534C10.0186 12.5353 10.0186 12.5366 10.0186 12.5379C10.0186 12.5392 10.0186 12.5405 10.0186 12.5418C10.0186 12.5431 10.0186 12.5444 10.0186 12.5458C10.0186 12.5471 10.0186 12.5484 10.0186 12.5497C10.0186 12.551 10.0186 12.5523 10.0186 12.5536C10.0186 12.5549 10.0186 12.5563 10.0186 12.5576C10.0186 12.5589 10.0186 12.5602 10.0186 12.5615C10.0186 12.5628 10.0186 12.5641 10.0186 12.5654C10.0186 12.5668 10.0186 12.5681 10.0186 12.5694C10.0186 12.5707 10.0186 12.572 10.0186 12.5733C10.0186 12.5747 10.0186 12.576 10.0186 12.5773C10.0186 12.5786 10.0186 12.5799 10.0186 12.5812C10.0186 12.5825 10.0186 12.5839 10.0186 12.5852C10.0186 12.5865 10.0186 12.5878 10.0186 12.5891C10.0186 12.5904 10.0186 12.5918 10.0186 12.5931C10.0186 12.5944 10.0186 12.5957 10.0186 12.597C10.0186 12.5983 10.0186 12.5997 10.0186 12.601C10.0186 12.6023 10.0186 12.6036 10.0186 12.6049C10.0186 12.6062 10.0186 12.6076 10.0186 12.6089C10.0186 12.6102 10.0186 12.6115 10.0186 12.6128C10.0186 12.6141 10.0186 12.6155 10.0186 12.6168C10.0186 12.6181 10.0186 12.6194 10.0186 12.6207C10.0186 12.6221 10.0186 12.6234 10.0186 12.6247C10.0186 12.626 10.0186 12.6273 10.0186 12.6286C10.0186 12.63 10.0186 12.6313 10.0186 12.6326C10.0186 12.6339 10.0186 12.6352 10.0186 12.6366C10.0186 12.6379 10.0186 12.6392 10.0186 12.6405C10.0186 12.6418 10.0186 12.6432 10.0186 12.6445C10.0186 12.6458 10.0186 12.6471 10.0186 12.6484C10.0186 12.6497 10.0186 12.6511 10.0186 12.6524C10.0186 12.6537 10.0186 12.655 10.0186 12.6563C10.0186 12.6577 10.0186 12.659 10.0186 12.6603C10.0186 12.6616 10.0186 12.6629 10.0186 12.6643C10.0186 12.6656 10.0186 12.6669 10.0186 12.6682C10.0186 12.6695 10.0186 12.6708 10.0186 12.6722C10.0186 12.6735 10.0186 12.6748 10.0186 12.6761C10.0186 12.6774 10.0186 12.6788 10.0186 12.6801C10.0186 12.6814 10.0186 12.6827 10.0186 12.684C10.0186 12.6853 10.0186 12.6867 10.0186 12.688C10.0186 12.6893 10.0186 12.6906 10.0186 12.6919C10.0186 12.6933 10.0186 12.6946 10.0186 12.6959C10.0186 12.6972 10.0186 12.6985 10.0186 12.6998C10.0186 12.7012 10.0186 12.7025 10.0186 12.7038C10.0186 12.7051 10.0186 12.7064 10.0186 12.7077C10.0186 12.7091 10.0186 12.7104 10.0186 12.7117C10.0186 12.713 10.0186 12.7143 10.0186 12.7156C10.0186 12.717 10.0186 12.7183 10.0186 12.7196C10.0186 12.7209 10.0186 12.7222 10.0186 12.7235C10.0186 12.7249 10.0186 12.7262 10.0186 12.7275C10.0186 12.7288 10.0186 12.7301 10.0186 12.7314C10.0186 12.7328 10.0186 12.7341 10.0186 12.7354C10.0186 12.7367 10.0186 12.738 10.0186 12.7393C10.0186 12.7406 10.0186 12.742 10.0186 12.7433C10.0186 12.7446 10.0186 12.7459 10.0186 12.7472C10.0186 12.7485 10.0186 12.7498 10.0186 12.7512C10.0186 12.7525 10.0186 12.7538 10.0186 12.7551C10.0186 12.7564 10.0186 12.7577 10.0186 12.759C10.0186 12.7603 10.0186 12.7617 10.0186 12.763C10.0186 12.7643 10.0186 12.7656 10.0186 12.7669C10.0186 12.7682 10.0186 12.7695 10.0186 12.7708C10.0186 12.7721 10.0186 12.7735 10.0186 12.7748C10.0186 12.7761 10.0186 12.7774 10.0186 12.7787C10.0186 12.78 10.0186 12.7813 10.0186 12.7826C10.0186 12.7839 10.0186 12.7852 10.0186 12.7865C10.0186 12.7879 10.0186 12.7892 10.0186 12.7905C10.0186 12.7918 10.0186 12.7931 10.0186 12.7944C10.0186 12.7957 10.0186 12.797 10.0186 12.7983C10.0186 12.7996 10.0186 12.8009 10.0186 12.8022C10.0186 12.8035 10.0186 12.8048 10.0186 12.8061C10.0186 12.8074 10.0186 12.8088 10.0186 12.8101C10.0186 12.8114 10.0186 12.8127 10.0186 12.814C10.0186 12.8153 10.0186 12.8166 10.0186 12.8179C10.0186 12.8192 10.0186 12.8205 10.0186 12.8218C10.0186 12.8231 10.0186 12.8244 10.0186 12.8257C10.0186 12.827 10.0186 12.8283 10.0186 12.8296C10.0186 12.8309 10.0186 12.8322 10.0186 12.8335C10.0186 12.8348 10.0186 12.8361 10.0186 12.8374C10.0186 12.8387 10.0186 12.84 10.0186 12.8413C10.0186 12.8426 10.0186 12.8439 10.0186 12.8452C10.0186 12.8465 10.0186 12.8478 10.0186 12.8491C10.0186 12.8504 10.0186 12.8517 10.0186 12.8529C10.0186 12.8542 10.0186 12.8555 10.0186 12.8568C10.0186 12.8581 10.0186 12.8594 10.0186 12.8607C10.0186 12.862 10.0186 12.8633 10.0186 12.8646C10.0186 12.8659 10.0186 12.8672 10.0186 12.8685C10.0186 12.8698 10.0186 12.871 10.0186 12.8723C10.0186 12.8736 10.0186 12.8749 10.0186 12.8762C10.0186 12.8775 10.0186 12.8788 10.0186 12.8801C10.0186 12.8814 10.0186 12.8826 10.0186 12.8839C10.0186 12.8852 10.0186 12.8865 10.0186 12.8878C10.0186 12.8891 10.0186 12.8904 10.0186 12.8916C10.0186 12.8929 10.0186 12.8942 10.0186 12.8955C10.0186 12.8968 10.0186 12.8981 10.0186 12.8993C10.0186 12.9006 10.0186 12.9019 10.0186 12.9032C10.0186 12.9045 10.0186 12.9057 10.0186 12.907C10.0186 12.9083 10.0186 12.9096 10.0186 12.9109C10.0186 12.9121 10.0186 12.9134 10.0186 12.9147C10.0186 12.916 10.0186 12.9173 10.0186 12.9185C10.0186 12.9198 10.0186 12.9211 10.0186 12.9224C10.0186 12.9236 10.0186 12.9249 10.0186 12.9262C10.0186 12.9275 10.0186 12.9287 10.0186 12.93C10.0186 12.9313 10.0186 12.9325 10.0186 12.9338C10.0186 12.9351 10.0186 12.9364 10.0186 12.9376C10.0186 12.9389 10.0186 12.9402 10.0186 12.9414C10.0186 12.9427 10.0186 12.944 10.0186 12.9452C10.0186 12.9465 10.0186 12.9478 10.0186 12.949C10.0186 12.9503 10.0186 12.9516 10.0186 12.9528C10.0186 12.9541 10.0186 12.9554 10.0186 12.9566C10.0186 12.9579 10.0186 12.9591 10.0186 12.9604C10.0186 12.9617 10.0186 12.9629 10.0186 12.9642C10.0186 12.9654 10.0186 12.9667 10.0186 12.968C10.0186 12.9692 10.0186 12.9705 10.0186 12.9717C10.0186 12.973 10.0186 12.9742 10.0186 12.9755C10.0186 12.9768 10.0186 12.978 10.0186 12.9793C10.0186 12.9805 10.0186 12.9818 10.0186 12.983C10.0186 12.9843 10.0186 12.9855 10.0186 12.9868C10.0186 12.988 10.0186 12.9893 10.0186 12.9905C10.0186 12.9918 10.0186 12.993 10.0186 12.9943C10.0186 12.9955 10.0186 12.9968 10.0186 12.998C10.0186 12.9993 10.0186 13.0005 10.0186 13.0017C10.0186 13.003 10.0186 13.0042 10.0186 13.0055C10.0186 13.0067 10.0186 13.008 10.0186 13.0092C10.0186 13.0104 10.0186 13.0117 10.0186 13.0129C10.0186 13.0142 10.0186 13.0154 10.0186 13.0166C10.0186 13.0179 10.0186 13.0191 10.0186 13.0203C10.0186 13.0216 10.0186 13.0228 10.0186 13.024C10.0186 13.0253 10.0186 13.0265 10.0186 13.0277C10.0186 13.029 10.0186 13.0302 10.0186 13.0314C10.0186 13.0327 10.0186 13.0339 10.0186 13.0351C10.0186 13.0364 10.0186 13.0376 10.0186 13.0388C10.0186 13.04 10.0186 13.0413 10.0186 13.0425C10.0186 13.0437 10.0186 13.0449 10.0186 13.0462C10.0186 13.0474 10.0186 13.0486 10.0186 13.0498C10.0186 13.051 10.0186 13.0523 10.0186 13.0535C10.0186 13.0547 10.0186 13.0559 10.0186 13.0571C10.0186 13.0584 10.0186 13.0596 10.0186 13.0608C10.0186 13.062 10.0186 13.0632 10.0186 13.0644C10.0186 13.0656 10.0186 13.0668 10.0186 13.0681C10.0186 13.0693 10.0186 13.0705 10.0186 13.0717C10.0186 13.0729 10.0186 13.0741 10.0186 13.0753C10.0186 13.0765 10.0186 13.0777 10.0186 13.0789C10.0186 13.0801 10.0186 13.0813 10.0186 13.0825C10.0186 13.0837 10.0186 13.0849 10.0186 13.0861C10.0186 13.0874 10.0186 13.0886 10.0186 13.0897C10.0186 13.0909 10.0186 13.0921 10.0186 13.0933C10.0186 13.0945 10.0186 13.0957 10.0186 13.0969C10.0186 13.0981 10.0186 13.0993 10.0186 13.1005C10.0186 13.1017 10.0186 13.1029 10.0186 13.1041C10.0186 13.1053 10.0186 13.1065 10.0186 13.1076C10.0186 13.1088 10.0186 13.11 10.0186 13.1112C10.0186 13.1124 10.0186 13.1136 10.0186 13.1148C10.0186 13.1159 10.0186 13.1171 10.0186 13.1183C10.0186 13.1195 10.0186 13.1207 10.0186 13.1218C10.0186 13.123 10.0186 13.1242 10.0186 13.1254C10.0186 13.1266 10.0186 13.1277 10.0186 13.1289C10.0186 13.1301 10.0186 13.1313 10.0186 13.1324C10.0186 13.1336 10.0186 13.1348 10.0186 13.1359C10.0186 13.1371 10.0186 13.1383 10.0186 13.1394C10.0186 13.1406 10.0186 13.1418 10.0186 13.1429C10.0186 13.1441 10.0186 13.1453 10.0186 13.1464C10.0186 13.1476 10.0186 13.1488 10.0186 13.1499C10.0186 13.1511 10.0186 13.1522 10.0186 13.1534C10.0186 13.1546 10.0186 13.1557 10.0186 13.1569C10.0186 13.158 10.0186 13.1592 10.0186 13.1603C10.0186 13.1615 10.0186 13.1626 10.0186 13.1638C10.0186 13.1649 10.0186 13.1661 10.0186 13.1672C10.0186 13.1684 10.0186 13.1695 10.0186 13.1707C10.0186 13.1718 10.0186 13.173 10.0186 13.1741C10.0186 13.1752 10.0186 13.1764 10.0186 13.1775C10.0186 13.1787 10.0186 13.1798 10.0186 13.1809C10.0186 13.1821 10.0186 13.1832 10.0186 13.1843C10.0186 13.1855 10.0186 13.1866 10.0186 13.1877C10.0186 13.1889 10.0186 13.19 10.0186 13.1911C10.0186 13.1923 10.0186 13.1934 10.0186 13.1945C10.0186 13.1957 10.0186 13.1968 10.0186 13.1979C10.0186 13.199 10.0186 13.2001 10.0186 13.2013C10.0186 13.2024 10.0186 13.2035 10.0186 13.2046C10.0186 13.2057 10.0186 13.2069 10.0186 13.208C10.0186 13.2091 10.0186 13.2102 10.0186 13.2113C10.0186 13.2124 10.0186 13.2136 10.0186 13.2147C10.0186 13.2158 10.0186 13.2169 10.0186 13.218C10.0186 13.2191 10.0186 13.2202 10.0186 13.2213C10.0186 13.2224 10.0186 13.2235 10.0186 13.2246C10.0186 13.2257 10.0186 13.2268 10.0186 13.2279C10.0186 13.229 10.0186 13.2301 10.0186 13.2312C10.0186 13.2323 10.0186 13.2334 10.0186 13.2345C10.0186 13.2356 10.0186 13.2367 10.0186 13.2378C10.0186 13.2389 10.0186 13.24 10.0186 13.241C10.0186 13.2421 10.0186 13.2432 10.0186 13.2443C10.0186 13.2454 10.0186 13.2465 10.0186 13.2476C10.0186 13.2486 10.0186 13.2497 10.0186 13.2508C10.0186 13.2519 10.0186 13.2529 10.0186 13.254C10.0186 13.2551 10.0186 13.2562 10.0186 13.2572C10.0186 13.2583 10.0186 13.2594 10.0186 13.2605C10.0186 13.2615 10.0186 13.2626 10.0186 13.2637C10.0186 13.2647 10.0186 13.2658 10.0186 13.2669C10.0186 13.2679 10.0186 13.269 10.0186 13.27C10.0186 13.2711 10.0186 13.2722 10.0186 13.2732C10.0186 13.2743 10.0186 13.2753 10.0186 13.2764C10.0186 13.2774 10.0186 13.2785 10.0186 13.2796C10.0186 13.2806 10.0186 13.2817 10.0186 13.2827C10.0186 13.2837 10.0186 13.2848 10.0186 13.2858C10.0186 13.2869 10.0186 13.2879 10.0186 13.289C10.0186 13.29 10.0186 13.291 10.0186 13.2921C10.0186 13.2931 10.0186 13.2942 10.0186 13.2952C10.0186 13.2962 10.0186 13.2973 10.0186 13.2983C10.0186 13.2993 10.0186 13.3004 10.0186 13.3014C10.0186 13.3024 10.0186 13.3034 10.0186 13.3045C10.0186 13.3055 10.0186 13.3065 10.0186 13.3075C10.0186 13.3086 10.0186 13.3096 10.0186 13.3106C10.0186 13.3116 10.0186 13.3126 10.0186 13.3137C10.0186 13.3147 10.0186 13.3157 10.0186 13.3167C10.0186 13.3177 10.0186 13.3187 10.0186 13.3197C10.0186 13.3207 10.0186 13.3217 10.0186 13.3227C10.0186 13.3238 10.0186 13.3248 10.0186 13.3258C10.0186 13.3268 10.0186 13.3278 10.0186 13.3288C10.0186 13.3298 10.0186 13.3308 10.0186 13.3317C10.0186 13.3327 10.0186 13.3337 10.0186 13.3347C10.0186 13.3357 10.0186 13.3367 10.0186 13.3377C10.0186 13.3387 10.0186 13.3397 10.0186 13.3407C10.0186 13.3416 10.0186 13.3426 10.0186 13.3436C10.0186 13.3446 10.0186 13.3456 10.0186 13.3465C10.0186 13.3475 10.0186 13.3485 10.0186 13.3495C10.0186 13.3504 10.0186 13.3514 10.0186 13.3524C10.0186 13.3534 10.0186 13.3543 10.0186 13.3553C10.0186 13.3563 10.0186 13.3572 10.0186 13.3582C10.0186 13.3591 10.0186 13.3601 10.0186 13.3611C10.0186 13.362 10.0186 13.363 10.0186 13.3639C10.0186 13.3649 10.0186 13.3658 10.0186 13.3668C10.0186 13.3677 10.0186 13.3687 10.0186 13.3696C10.0186 13.3706 10.0186 13.3715 10.0186 13.3725C10.0186 13.3734 10.0186 13.3744 10.0186 13.3753C10.0186 13.3763 10.0186 13.3772 10.0186 13.3781C10.0186 13.3791 10.0186 13.38 10.0186 13.3809C10.0186 13.3819 10.0186 13.3828 10.0186 13.3837C10.0186 13.3847 10.0186 13.3856 10.0186 13.3865C10.0186 13.3874 10.0186 13.3884 10.0186 13.3893C10.0186 13.3902 10.0186 13.3911 10.0186 13.392C10.0186 13.393 10.0186 13.3939 10.0186 13.3948C10.0186 13.3957 10.0186 13.3966 10.0186 13.3975C10.0186 13.3984 10.0186 13.3993 10.0186 13.4002C10.0186 13.4012 10.0186 13.4021 10.0186 13.403C10.0186 13.4039 10.0186 13.4048 10.0186 13.4057C10.0186 13.4066 10.0186 13.4075 10.0186 13.4084C10.0186 13.4092 10.0186 13.4101 10.0186 13.411C10.0186 13.4119 10.0186 13.4128 10.0186 13.4137C10.0186 13.4146 10.0186 13.4155 10.0186 13.4163C10.0186 13.4172 10.0186 13.4181 10.0186 13.419C10.0186 13.4199 10.0186 13.4207 10.0186 13.4216C10.0186 13.4225 10.0186 13.4234 10.0186 13.4242C10.0186 13.4251 10.0186 13.426 10.0186 13.4268C10.0186 13.4277 10.0186 13.4286 10.0186 13.4294C10.0186 13.4303 10.0186 13.4312 10.0186 13.432C10.0186 13.4329 10.0186 13.4337 10.0186 13.4346C10.0186 13.4354 10.0186 13.4363 10.0186 13.4371C10.0186 13.438 10.0186 13.4388 10.0186 13.4397C10.0186 13.4405 10.0186 13.4414 10.0186 13.4422C10.0186 13.443 10.0186 13.4439 10.0186 13.4447C10.0186 13.4456 10.0186 13.4464 10.0186 13.4472C10.0186 13.4481 10.0186 13.4489 10.0186 13.4497C10.0186 13.4505 10.0186 13.4514 10.0186 13.4522C10.0186 13.453 10.0186 13.4538 10.0186 13.4547C10.0186 13.4555 10.0186 13.4563 10.0186 13.4571C10.0186 13.4579 10.0186 13.4587 10.0186 13.4596C10.0186 13.4604 10.0186 13.4612 10.0186 13.462C10.0186 13.4628 10.0186 13.4636 10.0186 13.4644C10.0186 13.4652 10.0186 13.466 10.0186 13.4668C10.0186 13.4676 10.0186 13.4684 10.0186 13.4692C10.0186 13.47 10.0186 13.4708 10.0186 13.4716C10.0186 13.4724 10.0186 13.4731 10.0186 13.4739C10.0186 13.4747 10.0186 13.4755 10.0186 13.4763C10.0186 13.4771 10.0186 13.4778 10.0186 13.4786C10.0186 13.4794 10.0186 13.4802 10.0186 13.4809C10.0186 13.4817 10.0186 13.4825 10.0186 13.4832C10.0186 13.484 10.0186 13.4848 10.0186 13.4855C10.0186 13.4863 10.0186 13.4871 10.0186 13.4878C10.0186 13.4886 10.0186 13.4893 10.0186 13.4901C10.0186 13.4908 10.0186 13.4916 10.0186 13.4923C10.0186 13.4931 10.0186 13.4938 10.0186 13.4946C10.0186 13.4953 10.0186 13.4961 10.0186 13.4968C10.0186 13.4975 10.0186 13.4983 10.0186 13.499C10.0186 13.4997 10.0186 13.5005 10.0186 13.5012C10.0186 13.5019 10.0186 13.5027 10.0186 13.5034C10.0186 13.5041 10.0186 13.5048 10.0186 13.5056C10.0186 13.5063 10.0186 13.507 10.0186 13.5077C10.0186 13.5084 10.0186 13.5091 10.0186 13.5098C10.0186 13.5106 10.0186 13.5113 10.0186 13.512C10.0186 13.5127 10.0186 13.5134 10.0186 13.5141C10.0186 13.5148 10.0186 13.5155 10.0186 13.5162C10.0186 13.5169 10.0186 13.5176 10.0186 13.5183C10.0186 13.519 10.0186 13.5196 10.0186 13.5203C10.0186 13.521 10.0186 13.5217 10.0186 13.5224C10.0186 13.5231 10.0186 13.5238 10.0186 13.5244C10.0186 13.5251 10.0186 13.5258 10.0186 13.5265C10.0186 13.5271 10.0186 13.5278 10.0186 13.5285C10.0186 13.5291 10.0186 13.5298 10.0186 13.5305C10.0186 13.5311 10.0186 13.5318 10.0186 13.5324C10.0186 13.5331 10.0186 13.5338 10.0186 13.5344C10.0186 13.5351 10.0186 13.5357 10.0186 13.5364C10.0186 13.537 10.0186 13.5377 10.0186 13.5383C10.0186 13.5389 10.0186 13.5396 10.0186 13.5402C10.0186 13.5409 10.0186 13.5415 10.0186 13.5421C10.0186 13.5428 10.0186 13.5434 10.0186 13.544C10.0186 13.5446 10.0186 13.5453 10.0186 13.5459C10.0186 13.5465 10.0186 13.5471 10.0186 13.5477C10.0186 13.5484 10.0186 13.549 10.0186 13.5496C10.0186 13.5502 10.0186 13.5508 10.0186 13.5514C10.0186 13.552 10.0186 13.5526 10.0186 13.5532C10.0186 13.5538 10.0186 13.5544 10.0186 13.555C10.0186 13.5556 10.0186 13.5562 10.0186 13.5568C10.0186 13.5574 10.0186 13.558 10.0186 13.5586C10.0186 13.5592 10.0186 13.5598 10.0186 13.5603C10.0186 13.5609 10.0186 13.5615 10.0186 13.5621C10.0186 13.5626 10.0186 13.5632 10.0186 13.5638C10.0186 13.5644 10.0186 13.5649 10.0186 13.5655C10.0186 13.5661 10.0186 13.5666 10.0186 13.5672C10.0186 13.5677 10.0186 13.5683 10.0186 13.5689C10.0186 13.5694 10.0186 13.57 10.0186 13.5705C10.0186 13.5711 10.0186 13.5716 10.0186 13.5722C10.0186 13.5727 10.0186 13.5732 10.0186 13.5738C10.0186 13.5743 10.0186 13.5749 10.0186 13.5754C10.0186 13.5759 10.0186 13.5765 10.0186 13.577C10.0186 13.5775 10.0186 13.578 10.0186 13.5786C10.0186 13.5791 10.0186 13.5796 10.0186 13.5801C10.0186 13.5806 10.0186 13.5811 10.0186 13.5817C10.0186 13.5822 10.0186 13.5827 10.0186 13.5832C10.0186 13.5837 10.0186 13.5842 10.0186 13.5847C10.0186 13.5852 10.0186 13.5857 10.0186 13.5862C10.0186 13.5867 10.0186 13.5872 10.0186 13.5877C10.0186 13.5882 10.0186 13.5886 10.0186 13.5891C10.0186 13.5896 10.0186 13.5901 10.0186 13.5906C10.0186 13.5911 10.0186 13.5915 10.0186 13.592C10.0186 13.5925 10.0186 13.5929 10.0186 13.5934C10.0186 13.5939 10.0186 13.5943 10.0186 13.5948C10.0186 13.5953 10.0186 13.5957 10.0186 13.5962C10.0186 13.5966 10.0186 13.5971 10.0186 13.5975C10.0186 13.598 10.0186 13.5984 10.0186 13.5989C10.0186 13.5993 10.0186 13.5998 10.0186 13.6002C10.0186 13.6006 10.0186 13.6011 10.0186 13.6015C10.0186 13.6019 10.0186 13.6024 10.0186 13.6028C10.0186 13.6032 10.0186 13.6037 10.0186 13.6041C10.0186 13.6045 10.0186 13.6049 10.0186 13.6053C10.0186 13.6058 10.0186 13.6062 10.0186 13.6066C10.0186 13.607 10.0186 13.6074 10.0186 13.6078C10.0186 13.6082 10.0186 13.6086 10.0186 13.609C10.0186 13.6094 10.0186 13.6098 10.0186 13.6102C10.0186 13.6106 10.0186 13.611 10.0186 13.6114C10.0186 13.6117 10.0186 13.6121 10.0186 13.6125C10.0186 13.6129 10.0186 13.6133 10.0186 13.6136C10.0186 13.614 10.0186 13.6144 10.0186 13.6148C10.0186 13.6151 10.0186 13.6155 10.0186 13.6159C10.0186 13.6162 10.0186 13.6166 10.0186 13.6169C10.0186 13.6173 10.0186 13.6176 10.0186 13.618C10.0186 13.6183 10.0186 13.6187 10.0186 13.619C10.0186 13.6194 10.0186 13.6197 10.0186 13.6201C10.0186 13.6204 10.0186 13.6207 10.0186 13.6211C10.0186 13.6214 10.0186 13.6217 10.0186 13.6221C10.0186 13.6224 10.0186 13.6227 10.0186 13.623C10.0186 13.6234 10.0186 13.6237 10.0186 13.624C10.0186 13.6243 10.0186 13.6246 10.0186 13.6249C10.0186 13.6252 10.0186 13.6255 10.0186 13.6258C10.0186 13.6261 10.0186 13.6264 10.0186 13.6267C10.0186 13.627 10.0186 13.6273 10.0186 13.6276C10.0186 13.6279 10.0186 13.6282 10.0186 13.6285C10.0186 13.6288 10.0186 13.629 10.0186 13.6293C10.0186 13.6296 10.0186 13.6299 10.0186 13.6301C10.0186 13.6304 10.0186 13.6307 10.0186 13.6309C10.0186 13.6312 10.0186 13.6315 10.0186 13.6317C10.0186 13.632 10.0186 13.6322 10.0186 13.6325C10.0186 13.6328 10.0186 13.633 10.0186 13.6332C10.0186 13.6335 10.0186 13.6337 10.0186 13.634C10.0186 13.6342 10.0186 13.6345 10.0186 13.6347C10.0186 13.6349 10.0186 13.6352 10.0186 13.6354C10.0186 13.6356 10.0186 13.6358 10.0186 13.6361C10.0186 13.6363 10.0186 13.6365 10.0186 13.6367C10.0186 13.6369 10.0186 13.6371 10.0186 13.6373C10.0186 13.6375 10.0186 13.6378 10.0186 13.638C10.0186 13.6382 10.0186 13.6384 10.0186 13.6386C10.0186 13.6387 10.0186 13.6389 10.0186 13.6391C10.0186 13.6393 10.0186 13.6395 10.0186 13.6397C10.0186 13.6399 10.0186 13.64 10.0186 13.6402C10.0186 13.6404 10.0186 13.6406 10.0186 13.6407C10.0186 13.6409 10.0186 13.6411 10.0186 13.6412C10.0186 13.6414 10.0186 13.6416 10.0186 13.6417C10.0186 13.6419 10.0186 13.642 10.0186 13.6422C10.0186 13.6423 10.0186 13.6425 10.0186 13.6426C10.0186 13.6428 10.0186 13.6429 10.0186 13.643C10.0186 13.6432 10.0186 13.6433 10.0186 13.6434C10.0186 13.6436 10.0186 13.6437 10.0186 13.6438C10.0186 13.6439 10.0186 13.6441 10.0186 13.6442C10.0186 13.6443 10.0186 13.6444 10.0186 13.6445C10.0186 13.6446 10.0186 13.6447 10.0186 13.6448C10.0186 13.6449 10.0186 13.645 10.0186 13.6451C10.0186 13.6452 10.0186 13.6453 10.0186 13.6454C10.0186 13.6455 10.0186 13.6456 10.0186 13.6457C10.0186 13.6457 10.0186 13.6458 10.0186 13.6459C10.0186 13.646 10.0186 13.646 10.0186 13.6461C10.0186 13.6462 10.0186 13.6463 10.0186 13.6463C10.0186 13.6464 10.0186 13.6464 10.0186 13.6465C10.0186 13.6465 10.0186 13.6466 10.0186 13.6466C10.0186 13.6467 10.0186 13.6467 10.0186 13.6468C10.0186 13.6468 10.0186 13.6469 10.0186 13.6469C10.0186 13.6469 10.0186 13.647 10.0186 13.647C10.0186 13.647 10.0186 13.647 10.0186 13.6471C10.0186 13.6471 10.0186 13.6471 10.0186 13.6471C10.0186 13.6471 10.0186 13.6471 10.0186 13.6471C10.0186 13.6472 10.0186 13.6472 10.6186 13.6472C11.2186 13.6472 11.2186 13.6472 11.2186 13.6471C11.2186 13.6471 11.2186 13.6471 11.2186 13.6471C11.2186 13.6471 11.2186 13.6471 11.2186 13.6471C11.2186 13.647 11.2186 13.647 11.2186 13.647C11.2186 13.647 11.2186 13.6469 11.2186 13.6469C11.2186 13.6469 11.2186 13.6468 11.2186 13.6468C11.2186 13.6467 11.2186 13.6467 11.2186 13.6466C11.2186 13.6466 11.2186 13.6465 11.2186 13.6465C11.2186 13.6464 11.2186 13.6464 11.2186 13.6463C11.2186 13.6463 11.2186 13.6462 11.2186 13.6461C11.2186 13.646 11.2186 13.646 11.2186 13.6459C11.2186 13.6458 11.2186 13.6457 11.2186 13.6457C11.2186 13.6456 11.2186 13.6455 11.2186 13.6454C11.2186 13.6453 11.2186 13.6452 11.2186 13.6451C11.2186 13.645 11.2186 13.6449 11.2186 13.6448C11.2186 13.6447 11.2186 13.6446 11.2186 13.6445C11.2186 13.6444 11.2186 13.6443 11.2186 13.6442C11.2186 13.6441 11.2186 13.6439 11.2186 13.6438C11.2186 13.6437 11.2186 13.6436 11.2186 13.6434C11.2186 13.6433 11.2186 13.6432 11.2186 13.643C11.2186 13.6429 11.2186 13.6428 11.2186 13.6426C11.2186 13.6425 11.2186 13.6423 11.2186 13.6422C11.2186 13.642 11.2186 13.6419 11.2186 13.6417C11.2186 13.6416 11.2186 13.6414 11.2186 13.6412C11.2186 13.6411 11.2186 13.6409 11.2186 13.6407C11.2186 13.6406 11.2186 13.6404 11.2186 13.6402C11.2186 13.64 11.2186 13.6399 11.2186 13.6397C11.2186 13.6395 11.2186 13.6393 11.2186 13.6391C11.2186 13.6389 11.2186 13.6387 11.2186 13.6386C11.2186 13.6384 11.2186 13.6382 11.2186 13.638C11.2186 13.6378 11.2186 13.6375 11.2186 13.6373C11.2186 13.6371 11.2186 13.6369 11.2186 13.6367C11.2186 13.6365 11.2186 13.6363 11.2186 13.6361C11.2186 13.6358 11.2186 13.6356 11.2186 13.6354C11.2186 13.6352 11.2186 13.6349 11.2186 13.6347C11.2186 13.6345 11.2186 13.6342 11.2186 13.634C11.2186 13.6337 11.2186 13.6335 11.2186 13.6332C11.2186 13.633 11.2186 13.6328 11.2186 13.6325C11.2186 13.6322 11.2186 13.632 11.2186 13.6317C11.2186 13.6315 11.2186 13.6312 11.2186 13.6309C11.2186 13.6307 11.2186 13.6304 11.2186 13.6301C11.2186 13.6299 11.2186 13.6296 11.2186 13.6293C11.2186 13.629 11.2186 13.6288 11.2186 13.6285C11.2186 13.6282 11.2186 13.6279 11.2186 13.6276C11.2186 13.6273 11.2186 13.627 11.2186 13.6267C11.2186 13.6264 11.2186 13.6261 11.2186 13.6258C11.2186 13.6255 11.2186 13.6252 11.2186 13.6249C11.2186 13.6246 11.2186 13.6243 11.2186 13.624C11.2186 13.6237 11.2186 13.6234 11.2186 13.623C11.2186 13.6227 11.2186 13.6224 11.2186 13.6221C11.2186 13.6217 11.2186 13.6214 11.2186 13.6211C11.2186 13.6207 11.2186 13.6204 11.2186 13.6201C11.2186 13.6197 11.2186 13.6194 11.2186 13.619C11.2186 13.6187 11.2186 13.6183 11.2186 13.618C11.2186 13.6176 11.2186 13.6173 11.2186 13.6169C11.2186 13.6166 11.2186 13.6162 11.2186 13.6159C11.2186 13.6155 11.2186 13.6151 11.2186 13.6148C11.2186 13.6144 11.2186 13.614 11.2186 13.6136C11.2186 13.6133 11.2186 13.6129 11.2186 13.6125C11.2186 13.6121 11.2186 13.6117 11.2186 13.6114C11.2186 13.611 11.2186 13.6106 11.2186 13.6102C11.2186 13.6098 11.2186 13.6094 11.2186 13.609C11.2186 13.6086 11.2186 13.6082 11.2186 13.6078C11.2186 13.6074 11.2186 13.607 11.2186 13.6066C11.2186 13.6062 11.2186 13.6058 11.2186 13.6053C11.2186 13.6049 11.2186 13.6045 11.2186 13.6041C11.2186 13.6037 11.2186 13.6032 11.2186 13.6028C11.2186 13.6024 11.2186 13.6019 11.2186 13.6015C11.2186 13.6011 11.2186 13.6006 11.2186 13.6002C11.2186 13.5998 11.2186 13.5993 11.2186 13.5989C11.2186 13.5984 11.2186 13.598 11.2186 13.5975C11.2186 13.5971 11.2186 13.5966 11.2186 13.5962C11.2186 13.5957 11.2186 13.5953 11.2186 13.5948C11.2186 13.5943 11.2186 13.5939 11.2186 13.5934C11.2186 13.5929 11.2186 13.5925 11.2186 13.592C11.2186 13.5915 11.2186 13.5911 11.2186 13.5906C11.2186 13.5901 11.2186 13.5896 11.2186 13.5891C11.2186 13.5886 11.2186 13.5882 11.2186 13.5877C11.2186 13.5872 11.2186 13.5867 11.2186 13.5862C11.2186 13.5857 11.2186 13.5852 11.2186 13.5847C11.2186 13.5842 11.2186 13.5837 11.2186 13.5832C11.2186 13.5827 11.2186 13.5822 11.2186 13.5817C11.2186 13.5811 11.2186 13.5806 11.2186 13.5801C11.2186 13.5796 11.2186 13.5791 11.2186 13.5786C11.2186 13.578 11.2186 13.5775 11.2186 13.577C11.2186 13.5765 11.2186 13.5759 11.2186 13.5754C11.2186 13.5749 11.2186 13.5743 11.2186 13.5738C11.2186 13.5732 11.2186 13.5727 11.2186 13.5722C11.2186 13.5716 11.2186 13.5711 11.2186 13.5705C11.2186 13.57 11.2186 13.5694 11.2186 13.5689C11.2186 13.5683 11.2186 13.5677 11.2186 13.5672C11.2186 13.5666 11.2186 13.5661 11.2186 13.5655C11.2186 13.5649 11.2186 13.5644 11.2186 13.5638C11.2186 13.5632 11.2186 13.5626 11.2186 13.5621C11.2186 13.5615 11.2186 13.5609 11.2186 13.5603C11.2186 13.5598 11.2186 13.5592 11.2186 13.5586C11.2186 13.558 11.2186 13.5574 11.2186 13.5568C11.2186 13.5562 11.2186 13.5556 11.2186 13.555C11.2186 13.5544 11.2186 13.5538 11.2186 13.5532C11.2186 13.5526 11.2186 13.552 11.2186 13.5514C11.2186 13.5508 11.2186 13.5502 11.2186 13.5496C11.2186 13.549 11.2186 13.5484 11.2186 13.5477C11.2186 13.5471 11.2186 13.5465 11.2186 13.5459C11.2186 13.5453 11.2186 13.5446 11.2186 13.544C11.2186 13.5434 11.2186 13.5428 11.2186 13.5421C11.2186 13.5415 11.2186 13.5409 11.2186 13.5402C11.2186 13.5396 11.2186 13.5389 11.2186 13.5383C11.2186 13.5377 11.2186 13.537 11.2186 13.5364C11.2186 13.5357 11.2186 13.5351 11.2186 13.5344C11.2186 13.5338 11.2186 13.5331 11.2186 13.5324C11.2186 13.5318 11.2186 13.5311 11.2186 13.5305C11.2186 13.5298 11.2186 13.5291 11.2186 13.5285C11.2186 13.5278 11.2186 13.5271 11.2186 13.5265C11.2186 13.5258 11.2186 13.5251 11.2186 13.5244C11.2186 13.5238 11.2186 13.5231 11.2186 13.5224C11.2186 13.5217 11.2186 13.521 11.2186 13.5203C11.2186 13.5196 11.2186 13.519 11.2186 13.5183C11.2186 13.5176 11.2186 13.5169 11.2186 13.5162C11.2186 13.5155 11.2186 13.5148 11.2186 13.5141C11.2186 13.5134 11.2186 13.5127 11.2186 13.512C11.2186 13.5113 11.2186 13.5106 11.2186 13.5098C11.2186 13.5091 11.2186 13.5084 11.2186 13.5077C11.2186 13.507 11.2186 13.5063 11.2186 13.5056C11.2186 13.5048 11.2186 13.5041 11.2186 13.5034C11.2186 13.5027 11.2186 13.5019 11.2186 13.5012C11.2186 13.5005 11.2186 13.4997 11.2186 13.499C11.2186 13.4983 11.2186 13.4975 11.2186 13.4968C11.2186 13.4961 11.2186 13.4953 11.2186 13.4946C11.2186 13.4938 11.2186 13.4931 11.2186 13.4923C11.2186 13.4916 11.2186 13.4908 11.2186 13.4901C11.2186 13.4893 11.2186 13.4886 11.2186 13.4878C11.2186 13.4871 11.2186 13.4863 11.2186 13.4855C11.2186 13.4848 11.2186 13.484 11.2186 13.4832C11.2186 13.4825 11.2186 13.4817 11.2186 13.4809C11.2186 13.4802 11.2186 13.4794 11.2186 13.4786C11.2186 13.4778 11.2186 13.4771 11.2186 13.4763C11.2186 13.4755 11.2186 13.4747 11.2186 13.4739C11.2186 13.4731 11.2186 13.4724 11.2186 13.4716C11.2186 13.4708 11.2186 13.47 11.2186 13.4692C11.2186 13.4684 11.2186 13.4676 11.2186 13.4668C11.2186 13.466 11.2186 13.4652 11.2186 13.4644C11.2186 13.4636 11.2186 13.4628 11.2186 13.462C11.2186 13.4612 11.2186 13.4604 11.2186 13.4596C11.2186 13.4587 11.2186 13.4579 11.2186 13.4571C11.2186 13.4563 11.2186 13.4555 11.2186 13.4547C11.2186 13.4538 11.2186 13.453 11.2186 13.4522C11.2186 13.4514 11.2186 13.4505 11.2186 13.4497C11.2186 13.4489 11.2186 13.4481 11.2186 13.4472C11.2186 13.4464 11.2186 13.4456 11.2186 13.4447C11.2186 13.4439 11.2186 13.443 11.2186 13.4422C11.2186 13.4414 11.2186 13.4405 11.2186 13.4397C11.2186 13.4388 11.2186 13.438 11.2186 13.4371C11.2186 13.4363 11.2186 13.4354 11.2186 13.4346C11.2186 13.4337 11.2186 13.4329 11.2186 13.432C11.2186 13.4312 11.2186 13.4303 11.2186 13.4294C11.2186 13.4286 11.2186 13.4277 11.2186 13.4268C11.2186 13.426 11.2186 13.4251 11.2186 13.4242C11.2186 13.4234 11.2186 13.4225 11.2186 13.4216C11.2186 13.4207 11.2186 13.4199 11.2186 13.419C11.2186 13.4181 11.2186 13.4172 11.2186 13.4163C11.2186 13.4155 11.2186 13.4146 11.2186 13.4137C11.2186 13.4128 11.2186 13.4119 11.2186 13.411C11.2186 13.4101 11.2186 13.4092 11.2186 13.4084C11.2186 13.4075 11.2186 13.4066 11.2186 13.4057C11.2186 13.4048 11.2186 13.4039 11.2186 13.403C11.2186 13.4021 11.2186 13.4012 11.2186 13.4002C11.2186 13.3993 11.2186 13.3984 11.2186 13.3975C11.2186 13.3966 11.2186 13.3957 11.2186 13.3948C11.2186 13.3939 11.2186 13.393 11.2186 13.392C11.2186 13.3911 11.2186 13.3902 11.2186 13.3893C11.2186 13.3884 11.2186 13.3874 11.2186 13.3865C11.2186 13.3856 11.2186 13.3847 11.2186 13.3837C11.2186 13.3828 11.2186 13.3819 11.2186 13.3809C11.2186 13.38 11.2186 13.3791 11.2186 13.3781C11.2186 13.3772 11.2186 13.3763 11.2186 13.3753C11.2186 13.3744 11.2186 13.3734 11.2186 13.3725C11.2186 13.3715 11.2186 13.3706 11.2186 13.3696C11.2186 13.3687 11.2186 13.3677 11.2186 13.3668C11.2186 13.3658 11.2186 13.3649 11.2186 13.3639C11.2186 13.363 11.2186 13.362 11.2186 13.3611C11.2186 13.3601 11.2186 13.3591 11.2186 13.3582C11.2186 13.3572 11.2186 13.3563 11.2186 13.3553C11.2186 13.3543 11.2186 13.3534 11.2186 13.3524C11.2186 13.3514 11.2186 13.3504 11.2186 13.3495C11.2186 13.3485 11.2186 13.3475 11.2186 13.3465C11.2186 13.3456 11.2186 13.3446 11.2186 13.3436C11.2186 13.3426 11.2186 13.3416 11.2186 13.3407C11.2186 13.3397 11.2186 13.3387 11.2186 13.3377C11.2186 13.3367 11.2186 13.3357 11.2186 13.3347C11.2186 13.3337 11.2186 13.3327 11.2186 13.3317C11.2186 13.3308 11.2186 13.3298 11.2186 13.3288C11.2186 13.3278 11.2186 13.3268 11.2186 13.3258C11.2186 13.3248 11.2186 13.3238 11.2186 13.3227C11.2186 13.3217 11.2186 13.3207 11.2186 13.3197C11.2186 13.3187 11.2186 13.3177 11.2186 13.3167C11.2186 13.3157 11.2186 13.3147 11.2186 13.3137C11.2186 13.3126 11.2186 13.3116 11.2186 13.3106C11.2186 13.3096 11.2186 13.3086 11.2186 13.3075C11.2186 13.3065 11.2186 13.3055 11.2186 13.3045C11.2186 13.3034 11.2186 13.3024 11.2186 13.3014C11.2186 13.3004 11.2186 13.2993 11.2186 13.2983C11.2186 13.2973 11.2186 13.2962 11.2186 13.2952C11.2186 13.2942 11.2186 13.2931 11.2186 13.2921C11.2186 13.291 11.2186 13.29 11.2186 13.289C11.2186 13.2879 11.2186 13.2869 11.2186 13.2858C11.2186 13.2848 11.2186 13.2837 11.2186 13.2827C11.2186 13.2817 11.2186 13.2806 11.2186 13.2796C11.2186 13.2785 11.2186 13.2774 11.2186 13.2764C11.2186 13.2753 11.2186 13.2743 11.2186 13.2732C11.2186 13.2722 11.2186 13.2711 11.2186 13.27C11.2186 13.269 11.2186 13.2679 11.2186 13.2669C11.2186 13.2658 11.2186 13.2647 11.2186 13.2637C11.2186 13.2626 11.2186 13.2615 11.2186 13.2605C11.2186 13.2594 11.2186 13.2583 11.2186 13.2572C11.2186 13.2562 11.2186 13.2551 11.2186 13.254C11.2186 13.2529 11.2186 13.2519 11.2186 13.2508C11.2186 13.2497 11.2186 13.2486 11.2186 13.2476C11.2186 13.2465 11.2186 13.2454 11.2186 13.2443C11.2186 13.2432 11.2186 13.2421 11.2186 13.241C11.2186 13.24 11.2186 13.2389 11.2186 13.2378C11.2186 13.2367 11.2186 13.2356 11.2186 13.2345C11.2186 13.2334 11.2186 13.2323 11.2186 13.2312C11.2186 13.2301 11.2186 13.229 11.2186 13.2279C11.2186 13.2268 11.2186 13.2257 11.2186 13.2246C11.2186 13.2235 11.2186 13.2224 11.2186 13.2213C11.2186 13.2202 11.2186 13.2191 11.2186 13.218C11.2186 13.2169 11.2186 13.2158 11.2186 13.2147C11.2186 13.2136 11.2186 13.2124 11.2186 13.2113C11.2186 13.2102 11.2186 13.2091 11.2186 13.208C11.2186 13.2069 11.2186 13.2057 11.2186 13.2046C11.2186 13.2035 11.2186 13.2024 11.2186 13.2013C11.2186 13.2001 11.2186 13.199 11.2186 13.1979C11.2186 13.1968 11.2186 13.1957 11.2186 13.1945C11.2186 13.1934 11.2186 13.1923 11.2186 13.1911C11.2186 13.19 11.2186 13.1889 11.2186 13.1877C11.2186 13.1866 11.2186 13.1855 11.2186 13.1843C11.2186 13.1832 11.2186 13.1821 11.2186 13.1809C11.2186 13.1798 11.2186 13.1787 11.2186 13.1775C11.2186 13.1764 11.2186 13.1752 11.2186 13.1741C11.2186 13.173 11.2186 13.1718 11.2186 13.1707C11.2186 13.1695 11.2186 13.1684 11.2186 13.1672C11.2186 13.1661 11.2186 13.1649 11.2186 13.1638C11.2186 13.1626 11.2186 13.1615 11.2186 13.1603C11.2186 13.1592 11.2186 13.158 11.2186 13.1569C11.2186 13.1557 11.2186 13.1546 11.2186 13.1534C11.2186 13.1522 11.2186 13.1511 11.2186 13.1499C11.2186 13.1488 11.2186 13.1476 11.2186 13.1464C11.2186 13.1453 11.2186 13.1441 11.2186 13.1429C11.2186 13.1418 11.2186 13.1406 11.2186 13.1394C11.2186 13.1383 11.2186 13.1371 11.2186 13.1359C11.2186 13.1348 11.2186 13.1336 11.2186 13.1324C11.2186 13.1313 11.2186 13.1301 11.2186 13.1289C11.2186 13.1277 11.2186 13.1266 11.2186 13.1254C11.2186 13.1242 11.2186 13.123 11.2186 13.1218C11.2186 13.1207 11.2186 13.1195 11.2186 13.1183C11.2186 13.1171 11.2186 13.1159 11.2186 13.1148C11.2186 13.1136 11.2186 13.1124 11.2186 13.1112C11.2186 13.11 11.2186 13.1088 11.2186 13.1076C11.2186 13.1065 11.2186 13.1053 11.2186 13.1041C11.2186 13.1029 11.2186 13.1017 11.2186 13.1005C11.2186 13.0993 11.2186 13.0981 11.2186 13.0969C11.2186 13.0957 11.2186 13.0945 11.2186 13.0933C11.2186 13.0921 11.2186 13.0909 11.2186 13.0897C11.2186 13.0886 11.2186 13.0874 11.2186 13.0861C11.2186 13.0849 11.2186 13.0837 11.2186 13.0825C11.2186 13.0813 11.2186 13.0801 11.2186 13.0789C11.2186 13.0777 11.2186 13.0765 11.2186 13.0753C11.2186 13.0741 11.2186 13.0729 11.2186 13.0717C11.2186 13.0705 11.2186 13.0693 11.2186 13.0681C11.2186 13.0668 11.2186 13.0656 11.2186 13.0644C11.2186 13.0632 11.2186 13.062 11.2186 13.0608C11.2186 13.0596 11.2186 13.0584 11.2186 13.0571C11.2186 13.0559 11.2186 13.0547 11.2186 13.0535C11.2186 13.0523 11.2186 13.051 11.2186 13.0498C11.2186 13.0486 11.2186 13.0474 11.2186 13.0462C11.2186 13.0449 11.2186 13.0437 11.2186 13.0425C11.2186 13.0413 11.2186 13.04 11.2186 13.0388C11.2186 13.0376 11.2186 13.0364 11.2186 13.0351C11.2186 13.0339 11.2186 13.0327 11.2186 13.0314C11.2186 13.0302 11.2186 13.029 11.2186 13.0277C11.2186 13.0265 11.2186 13.0253 11.2186 13.024C11.2186 13.0228 11.2186 13.0216 11.2186 13.0203C11.2186 13.0191 11.2186 13.0179 11.2186 13.0166C11.2186 13.0154 11.2186 13.0142 11.2186 13.0129C11.2186 13.0117 11.2186 13.0104 11.2186 13.0092C11.2186 13.008 11.2186 13.0067 11.2186 13.0055C11.2186 13.0042 11.2186 13.003 11.2186 13.0017C11.2186 13.0005 11.2186 12.9993 11.2186 12.998C11.2186 12.9968 11.2186 12.9955 11.2186 12.9943C11.2186 12.993 11.2186 12.9918 11.2186 12.9905C11.2186 12.9893 11.2186 12.988 11.2186 12.9868C11.2186 12.9855 11.2186 12.9843 11.2186 12.983C11.2186 12.9818 11.2186 12.9805 11.2186 12.9793C11.2186 12.978 11.2186 12.9768 11.2186 12.9755C11.2186 12.9742 11.2186 12.973 11.2186 12.9717C11.2186 12.9705 11.2186 12.9692 11.2186 12.968C11.2186 12.9667 11.2186 12.9654 11.2186 12.9642C11.2186 12.9629 11.2186 12.9617 11.2186 12.9604C11.2186 12.9591 11.2186 12.9579 11.2186 12.9566C11.2186 12.9554 11.2186 12.9541 11.2186 12.9528C11.2186 12.9516 11.2186 12.9503 11.2186 12.949C11.2186 12.9478 11.2186 12.9465 11.2186 12.9452C11.2186 12.944 11.2186 12.9427 11.2186 12.9414C11.2186 12.9402 11.2186 12.9389 11.2186 12.9376C11.2186 12.9364 11.2186 12.9351 11.2186 12.9338C11.2186 12.9325 11.2186 12.9313 11.2186 12.93C11.2186 12.9287 11.2186 12.9275 11.2186 12.9262C11.2186 12.9249 11.2186 12.9236 11.2186 12.9224C11.2186 12.9211 11.2186 12.9198 11.2186 12.9185C11.2186 12.9173 11.2186 12.916 11.2186 12.9147C11.2186 12.9134 11.2186 12.9121 11.2186 12.9109C11.2186 12.9096 11.2186 12.9083 11.2186 12.907C11.2186 12.9057 11.2186 12.9045 11.2186 12.9032C11.2186 12.9019 11.2186 12.9006 11.2186 12.8993C11.2186 12.8981 11.2186 12.8968 11.2186 12.8955C11.2186 12.8942 11.2186 12.8929 11.2186 12.8916C11.2186 12.8904 11.2186 12.8891 11.2186 12.8878C11.2186 12.8865 11.2186 12.8852 11.2186 12.8839C11.2186 12.8826 11.2186 12.8814 11.2186 12.8801C11.2186 12.8788 11.2186 12.8775 11.2186 12.8762C11.2186 12.8749 11.2186 12.8736 11.2186 12.8723C11.2186 12.871 11.2186 12.8698 11.2186 12.8685C11.2186 12.8672 11.2186 12.8659 11.2186 12.8646C11.2186 12.8633 11.2186 12.862 11.2186 12.8607C11.2186 12.8594 11.2186 12.8581 11.2186 12.8568C11.2186 12.8555 11.2186 12.8542 11.2186 12.8529C11.2186 12.8517 11.2186 12.8504 11.2186 12.8491C11.2186 12.8478 11.2186 12.8465 11.2186 12.8452C11.2186 12.8439 11.2186 12.8426 11.2186 12.8413C11.2186 12.84 11.2186 12.8387 11.2186 12.8374C11.2186 12.8361 11.2186 12.8348 11.2186 12.8335C11.2186 12.8322 11.2186 12.8309 11.2186 12.8296C11.2186 12.8283 11.2186 12.827 11.2186 12.8257C11.2186 12.8244 11.2186 12.8231 11.2186 12.8218C11.2186 12.8205 11.2186 12.8192 11.2186 12.8179C11.2186 12.8166 11.2186 12.8153 11.2186 12.814C11.2186 12.8127 11.2186 12.8114 11.2186 12.8101C11.2186 12.8088 11.2186 12.8074 11.2186 12.8061C11.2186 12.8048 11.2186 12.8035 11.2186 12.8022C11.2186 12.8009 11.2186 12.7996 11.2186 12.7983C11.2186 12.797 11.2186 12.7957 11.2186 12.7944C11.2186 12.7931 11.2186 12.7918 11.2186 12.7905C11.2186 12.7892 11.2186 12.7879 11.2186 12.7865C11.2186 12.7852 11.2186 12.7839 11.2186 12.7826C11.2186 12.7813 11.2186 12.78 11.2186 12.7787C11.2186 12.7774 11.2186 12.7761 11.2186 12.7748C11.2186 12.7735 11.2186 12.7721 11.2186 12.7708C11.2186 12.7695 11.2186 12.7682 11.2186 12.7669C11.2186 12.7656 11.2186 12.7643 11.2186 12.763C11.2186 12.7617 11.2186 12.7603 11.2186 12.759C11.2186 12.7577 11.2186 12.7564 11.2186 12.7551C11.2186 12.7538 11.2186 12.7525 11.2186 12.7512C11.2186 12.7498 11.2186 12.7485 11.2186 12.7472C11.2186 12.7459 11.2186 12.7446 11.2186 12.7433C11.2186 12.742 11.2186 12.7406 11.2186 12.7393C11.2186 12.738 11.2186 12.7367 11.2186 12.7354C11.2186 12.7341 11.2186 12.7328 11.2186 12.7314C11.2186 12.7301 11.2186 12.7288 11.2186 12.7275C11.2186 12.7262 11.2186 12.7249 11.2186 12.7235C11.2186 12.7222 11.2186 12.7209 11.2186 12.7196C11.2186 12.7183 11.2186 12.717 11.2186 12.7156C11.2186 12.7143 11.2186 12.713 11.2186 12.7117C11.2186 12.7104 11.2186 12.7091 11.2186 12.7077C11.2186 12.7064 11.2186 12.7051 11.2186 12.7038C11.2186 12.7025 11.2186 12.7012 11.2186 12.6998C11.2186 12.6985 11.2186 12.6972 11.2186 12.6959C11.2186 12.6946 11.2186 12.6933 11.2186 12.6919C11.2186 12.6906 11.2186 12.6893 11.2186 12.688C11.2186 12.6867 11.2186 12.6853 11.2186 12.684C11.2186 12.6827 11.2186 12.6814 11.2186 12.6801C11.2186 12.6788 11.2186 12.6774 11.2186 12.6761C11.2186 12.6748 11.2186 12.6735 11.2186 12.6722C11.2186 12.6708 11.2186 12.6695 11.2186 12.6682C11.2186 12.6669 11.2186 12.6656 11.2186 12.6643C11.2186 12.6629 11.2186 12.6616 11.2186 12.6603C11.2186 12.659 11.2186 12.6577 11.2186 12.6563C11.2186 12.655 11.2186 12.6537 11.2186 12.6524C11.2186 12.6511 11.2186 12.6497 11.2186 12.6484C11.2186 12.6471 11.2186 12.6458 11.2186 12.6445C11.2186 12.6432 11.2186 12.6418 11.2186 12.6405C11.2186 12.6392 11.2186 12.6379 11.2186 12.6366C11.2186 12.6352 11.2186 12.6339 11.2186 12.6326C11.2186 12.6313 11.2186 12.63 11.2186 12.6286C11.2186 12.6273 11.2186 12.626 11.2186 12.6247C11.2186 12.6234 11.2186 12.6221 11.2186 12.6207C11.2186 12.6194 11.2186 12.6181 11.2186 12.6168C11.2186 12.6155 11.2186 12.6141 11.2186 12.6128C11.2186 12.6115 11.2186 12.6102 11.2186 12.6089C11.2186 12.6076 11.2186 12.6062 11.2186 12.6049C11.2186 12.6036 11.2186 12.6023 11.2186 12.601C11.2186 12.5997 11.2186 12.5983 11.2186 12.597C11.2186 12.5957 11.2186 12.5944 11.2186 12.5931C11.2186 12.5918 11.2186 12.5904 11.2186 12.5891C11.2186 12.5878 11.2186 12.5865 11.2186 12.5852C11.2186 12.5839 11.2186 12.5825 11.2186 12.5812C11.2186 12.5799 11.2186 12.5786 11.2186 12.5773C11.2186 12.576 11.2186 12.5747 11.2186 12.5733C11.2186 12.572 11.2186 12.5707 11.2186 12.5694C11.2186 12.5681 11.2186 12.5668 11.2186 12.5654C11.2186 12.5641 11.2186 12.5628 11.2186 12.5615C11.2186 12.5602 11.2186 12.5589 11.2186 12.5576C11.2186 12.5563 11.2186 12.5549 11.2186 12.5536C11.2186 12.5523 11.2186 12.551 11.2186 12.5497C11.2186 12.5484 11.2186 12.5471 11.2186 12.5458C11.2186 12.5444 11.2186 12.5431 11.2186 12.5418C11.2186 12.5405 11.2186 12.5392 11.2186 12.5379C11.2186 12.5366 11.2186 12.5353 11.2186 12.534C11.2186 12.5326 11.2186 12.5313 11.2186 12.53C11.2186 12.5287 11.2186 12.5274 11.2186 12.5261C11.2186 12.5248 11.2186 12.5235 11.2186 12.5222C11.2186 12.5209 11.2186 12.5196 11.2186 12.5182C11.2186 12.5169 11.2186 12.5156 11.2186 12.5143C11.2186 12.513 11.2186 12.5117 11.2186 12.5104C11.2186 12.5091 11.2186 12.5078 11.2186 12.5065C11.2186 12.5052 11.2186 12.5039 11.2186 12.5026C11.2186 12.5013 11.2186 12.5 11.2186 12.4987C11.2186 12.4973 11.2186 12.496 11.2186 12.4947C11.2186 12.4934 11.2186 12.4921 11.2186 12.4908C11.2186 12.4895 11.2186 12.4882 11.2186 12.4869C11.2186 12.4856 11.2186 12.4843 11.2186 12.483C11.2186 12.4817 11.2186 12.4804 11.2186 12.4791C11.2186 12.4778 11.2186 12.4765 11.2186 12.4752C11.2186 12.4739 11.2186 12.4726 11.2186 12.4713C11.2186 12.47 11.2186 12.4687 11.2186 12.4674C11.2186 12.4661 11.2186 12.4648 11.2186 12.4635C11.2186 12.4622 11.2186 12.4609 11.2186 12.4596C11.2186 12.4583 11.2186 12.457 11.2186 12.4558C11.2186 12.4545 11.2186 12.4532 11.2186 12.4519C11.2186 12.4506 11.2186 12.4493 11.2186 12.448C11.2186 12.4467 11.2186 12.4454 11.2186 12.4441C11.2186 12.4428 11.2186 12.4415 11.2186 12.4402C11.2186 12.4389 11.2186 12.4377 11.2186 12.4364C11.2186 12.4351 11.2186 12.4338 11.2186 12.4325C11.2186 12.4312 11.2186 12.4299 11.2186 12.4286C11.2186 12.4273 11.2186 12.426 11.2186 12.4248C11.2186 12.4235 11.2186 12.4222 11.2186 12.4209C11.2186 12.4196 11.2186 12.4183 11.2186 12.417C11.2186 12.4158 11.2186 12.4145 11.2186 12.4132C11.2186 12.4119 11.2186 12.4106 11.2186 12.4093C11.2186 12.4081 11.2186 12.4068 11.2186 12.4055C11.2186 12.4042 11.2186 12.4029 11.2186 12.4017C11.2186 12.4004 11.2186 12.3991 11.2186 12.3978C11.2186 12.3965 11.2186 12.3953 11.2186 12.394C11.2186 12.3927 11.2186 12.3914 11.2186 12.3901C11.2186 12.3889 11.2186 12.3876 11.2186 12.3863C11.2186 12.385 11.2186 12.3838 11.2186 12.3825C11.2186 12.3812 11.2186 12.3799 11.2186 12.3787C11.2186 12.3774 11.2186 12.3761 11.2186 12.3749C11.2186 12.3736 11.2186 12.3723 11.2186 12.371C11.2186 12.3698 11.2186 12.3685 11.2186 12.3672C11.2186 12.366 11.2186 12.3647 11.2186 12.3634C11.2186 12.3622 11.2186 12.3609 11.2186 12.3596C11.2186 12.3584 11.2186 12.3571 11.2186 12.3558C11.2186 12.3546 11.2186 12.3533 11.2186 12.352C11.2186 12.3508 11.2186 12.3495 11.2186 12.3483C11.2186 12.347 11.2186 12.3457 11.2186 12.3445C11.2186 12.3432 11.2186 12.342 11.2186 12.3407C11.2186 12.3394 11.2186 12.3382 11.2186 12.3369C11.2186 12.3357 11.2186 12.3344 11.2186 12.3332C11.2186 12.3319 11.2186 12.3306 11.2186 12.3294C11.2186 12.3281 11.2186 12.3269 11.2186 12.3256C11.2186 12.3244 11.2186 12.3231 11.2186 12.3219C11.2186 12.3206 11.2186 12.3194 11.2186 12.3181C11.2186 12.3169 11.2186 12.3156 11.2186 12.3144C11.2186 12.3131 11.2186 12.3119 11.2186 12.3106C11.2186 12.3094 11.2186 12.3081 11.2186 12.3069C11.2186 12.3057 11.2186 12.3044 11.2186 12.3032C11.2186 12.3019 11.2186 12.3007 11.2186 12.2994C11.2186 12.2982 11.2186 12.297 11.2186 12.2957C11.2186 12.2945 11.2186 12.2932 11.2186 12.292C11.2186 12.2908 11.2186 12.2895 11.2186 12.2883C11.2186 12.2871 11.2186 12.2858 11.2186 12.2846C11.2186 12.2834 11.2186 12.2821 11.2186 12.2809C11.2186 12.2797 11.2186 12.2784 11.2186 12.2772C11.2186 12.276 11.2186 12.2747 11.2186 12.2735C11.2186 12.2723 11.2186 12.271 11.2186 12.2698C11.2186 12.2686 11.2186 12.2674 11.2186 12.2661C11.2186 12.2649 11.2186 12.2637 11.2186 12.2625C11.2186 12.2612 11.2186 12.26 11.2186 12.2588C11.2186 12.2576 11.2186 12.2564 11.2186 12.2551C11.2186 12.2539 11.2186 12.2527 11.2186 12.2515C11.2186 12.2503 11.2186 12.249 11.2186 12.2478C11.2186 12.2466 11.2186 12.2454 11.2186 12.2442C11.2186 12.243 11.2186 12.2418 11.2186 12.2405C11.2186 12.2393 11.2186 12.2381 11.2186 12.2369C11.2186 12.2357 11.2186 12.2345 11.2186 12.2333C11.2186 12.2321 11.2186 12.2309 11.2186 12.2297C11.2186 12.2285 11.2186 12.2273 11.2186 12.2261C11.2186 12.2249 11.2186 12.2237 11.2186 12.2224C11.2186 12.2212 11.2186 12.22 11.2186 12.2188C11.2186 12.2176 11.2186 12.2164 11.2186 12.2153C11.2186 12.2141 11.2186 12.2129 11.2186 12.2117C11.2186 12.2105 11.2186 12.2093 11.2186 12.2081C11.2186 12.2069 11.2186 12.2057 11.2186 12.2045C11.2186 12.2033 11.2186 12.2021 11.2186 12.2009C11.2186 12.1997 11.2186 12.1986 11.2186 12.1974C11.2186 12.1962 11.2186 12.195 11.2186 12.1938C11.2186 12.1926 11.2186 12.1915 11.2186 12.1903C11.2186 12.1891 11.2186 12.1879 11.2186 12.1867C11.2186 12.1855 11.2186 12.1844 11.2186 12.1832C11.2186 12.182 11.2186 12.1808 11.2186 12.1797C11.2186 12.1785 11.2186 12.1773 11.2186 12.1761C11.2186 12.175 11.2186 12.1738 11.2186 12.1726C11.2186 12.1715 11.2186 12.1703 11.2186 12.1691C11.2186 12.1679 11.2186 12.1668 11.2186 12.1656C11.2186 12.1645 11.2186 12.1633 11.2186 12.1621C11.2186 12.161 11.2186 12.1598 11.2186 12.1586C11.2186 12.1575 11.2186 12.1563 11.2186 12.1552C11.2186 12.154 11.2186 12.1528 11.2186 12.1517C11.2186 12.1505 11.2186 12.1494 11.2186 12.1482C11.2186 12.1471 11.2186 12.1459 11.2186 12.1448C11.2186 12.1436 11.2186 12.1425 11.2186 12.1413H10.0186ZM9 15.1H13.5176V13.9H9V15.1ZM9 12.7413C10.1264 12.7413 10.612 12.7456 13.209 12.7422L13.2075 11.5422C10.6099 11.5456 10.1324 11.5413 9 11.5413V12.7413ZM10.6186 8.00024C10.6194 8.60024 10.6194 8.60024 10.6194 8.60024C10.6194 8.60024 10.6194 8.60024 10.6194 8.60024C10.6194 8.60024 10.6194 8.60024 10.6194 8.60024C10.6195 8.60024 10.6195 8.60024 10.6196 8.60024C10.6197 8.60024 10.6199 8.60024 10.6201 8.60024C10.6207 8.60024 10.6215 8.60024 10.6227 8.60024C10.6252 8.60023 10.629 8.60023 10.6348 8.60023C10.6464 8.60022 10.6654 8.6002 10.6954 8.60019C10.7553 8.60015 10.8588 8.60011 11.0329 8.60008C11.3811 8.60001 12.0117 8.59996 13.1411 8.60005L13.1412 7.40005C12.0117 7.39996 11.381 7.40001 11.0327 7.40008C10.8585 7.40011 10.7548 7.40015 10.6947 7.40019C10.6647 7.4002 10.6455 7.40022 10.6338 7.40023C10.6279 7.40023 10.624 7.40023 10.6214 7.40024C10.6201 7.40024 10.6192 7.40024 10.6186 7.40024C10.6183 7.40024 10.6181 7.40024 10.618 7.40024C10.6179 7.40024 10.6178 7.40024 10.6178 7.40024C10.6178 7.40024 10.6177 7.40024 10.6177 7.40024C10.6177 7.40024 10.6177 7.40024 10.6177 7.40024C10.6177 7.40024 10.6177 7.40024 10.6186 8.00024ZM13.1411 8.60005C13.8178 8.60011 14.3469 9.23201 14.3967 10.1042C14.4201 10.5145 14.3196 10.8828 14.1315 11.1332C13.9584 11.3635 13.6781 11.5416 13.2075 11.5422L13.209 12.7422C14.0371 12.7412 14.68 12.4007 15.0908 11.8541C15.4865 11.3276 15.6304 10.6605 15.5947 10.0358C15.5263 8.83771 14.7232 7.40018 13.1412 7.40005L13.1411 8.60005Z" fill="white"/>
</svg>
